<svg width="115" height="104" id="Layer_1" data-name="Layer 1" xmlns="http://www.w3.org/2000/svg" viewBox="0 0 115 104"><defs><style>.cls-1{fill:#0fa0ea;}</style></defs><title>2019_Brand_Corporate-website_Illustrations_R1V1</title><path class="cls-1" d="M62.19,0c0,.19.22.24.35.33s.16.12,0,.21-.11.2.05.27.29.13.11.31c0,0-.08.07,0,.11s.15.07.2.13-.16.12-.08.2c.25.25,0,.38-.12.53s-.13.15,0,.22.06.11,0,.18a2.33,2.33,0,0,1-.26.63.42.42,0,0,0,0,.45.12.12,0,0,1,0,.15.79.79,0,0,0-.21.56c0,.19.07.51-.27.59,0,0,0,0,0,.06.42.13,0,.42.23.64l-.36-.07s-.06,0,0,.08a.64.64,0,0,1,.13.59,4.27,4.27,0,0,1-.33,1,2.34,2.34,0,0,0-.3.9.75.75,0,0,0,.12.53c.14.2.08.37-.15.36S61,9,61,9.14s-.11.27-.1.43,0,.31.2.34.18.26.11.36-.13,0-.29-.16a.86.86,0,0,0-.14.69c0,.07,0,.16,0,.2s-.11.12,0,.22a.38.38,0,0,1,.1.4c0,.06-.05.13,0,.17s.13.24,0,.31-.27.31-.32.3c-.33-.1-.12.26-.27.28s0,.05,0,.07c.2.29.2.3,0,.39s-.22,0-.21.1,0,.24,0,.33c.2.31,0,.52-.18.7a.42.42,0,0,0-.16.21c-.08.27-.37.28-.6.36,0,0-.14,0-.07-.13s.1-.34-.12-.42-.24-.22-.23-.42A18.61,18.61,0,0,1,59,11.64c.08-.41.17-.81.23-1.23,0-.17.08-.33.12-.5a5.53,5.53,0,0,0,.34-1.5,1.54,1.54,0,0,1,.11-.55,20.93,20.93,0,0,1,.57-2.06.26.26,0,0,0,0-.17,2.65,2.65,0,0,1,.29-1c0-.16,0-.35.06-.51.23-.65.24-1.35.52-2a4.52,4.52,0,0,0,.23-.5c.05-.19.25-.11.4-.16a1,1,0,0,1,0-.95c.2,0,.2.26.34.36s.06.2.36.29L62.19.87c0-.16.07-.33-.11-.47s0-.27,0-.4Zm.25,2c-.07-.21.22-.37.11-.5s-.25.23-.46.16c0,0-.08,0-.05.14S62.27,1.92,62.44,2Zm-.33.44a4.36,4.36,0,0,1,0,.45c0,.13.07.13.16.14s.15-.08.15-.17S62.3,2.6,62.11,2.44ZM59.18,13.65c0,.38.31.35.45.56C59.66,13.83,59.39,13.81,59.18,13.65Zm2.23-6.91a.12.12,0,0,0-.14-.06c-.05,0-.1,0-.08.11a.09.09,0,0,0,.11,0C61.35,6.82,61.4,6.81,61.41,6.74Zm.48-1.48a.07.07,0,0,0,0-.09c-.05,0-.07,0-.07.07s0,.07,0,.07S61.88,5.31,61.89,5.26Z"/><path class="cls-1" d="M54.78,102.27H55c.45,0,.52.08.61.58.16-.21.38-.12.58-.18s.17,0,.23-.11.13-.07.15,0c.18.29.42.14.64.09s.34-.07.42.27c0,.1,0,.2.15.23s0-.06.07-.09c.09-.18,0-.47.17-.56a1.83,1.83,0,0,1,.71-.12,2.41,2.41,0,0,0,.7-.18,6.51,6.51,0,0,0,.72-.31c.34-.16.41-.11.4.27,0,0,0,.08.05.13a.78.78,0,0,0,.2-.45c0-.37.25-.47.52-.57,0,.07.07.17,0,.2-.27.25-.13.53-.08.8a.89.89,0,0,1,0,.43c-.21-.07-.18-.3-.37-.41,0,.23-.2.36-.24.57s-.26.09-.38.17-.15.07-.35,0c0,0,0,0,0,.06,0,.46,0,.46-.39.27-.09.06.1.23-.07.24s-.54.19-.71-.14c-.13.09-.09.24-.18.31s-.13.13-.18.07c-.21-.27-.58,0-.8-.25-.07-.07-.16.09-.21.17s-.28.22-.38,0a1.38,1.38,0,0,1-.08-.29c-.11,0-.12.12-.13.21a.24.24,0,0,1-.36.18c-.28-.11-.43-.05-.61.24h-.09c-.08-.4-.08-.4-.56-.43-.3,0-.39-.07-.46-.33v0c-.06-.35-.13-.68-.53-.81-.06.08,0,.2,0,.31s0,.19.18.11.11,0,.13.06a.12.12,0,0,1-.06.15c-.27.16-.41.15-.58-.1s-.34,0-.46-.16-.42-.23-.45-.26-.22-.26-.4-.32c-.46-.18-.53-.4-.26-.78a.2.2,0,0,0-.21,0l-.18.11c0-.21,0-.39.05-.57.2.06-.05.23.16.3,0-.66.28-1.3-.08-1.93.31.19.28.19.31.58,0,.2.09.38-.05.55.14.06.12-.13.22-.09s.06.14,0,.21a1.89,1.89,0,0,1-.12.27c.23,0,.4.06.3.33,0,.09,0,.16.1.29,0-.21,0-.43.31-.48a.73.73,0,0,0,.1.52,1,1,0,0,0,.31.46c-.22.28.38.08.17.38.15-.12.09-.23.07-.33s0-.16.14-.17c0,.28.44,0,.43.31l.06,0c.2-.21.31,0,.46.08Zm4.52.82c0-.34,0-.34-.33-.21A.48.48,0,0,0,59.3,103.09Zm-6.73-1s.12-.06.1-.15,0-.15-.12-.13a.18.18,0,0,0-.13.15C52.4,102,52.5,102,52.57,102Zm3.59,1.21c-.07-.06-.12,0-.18,0s-.14,0-.11.08.1.08.18,0S56.17,103.35,56.16,103.25Z"/><path class="cls-1" d="M.22,66.14H.35c.06,0,.12,0,.11.08s-.09.06-.16.05l-.08,0Z"/><path class="cls-1" d="M50.67,43c0-.1,0-.2,0-.3s0-.14.13-.12.19-.18.34-.19.13-.19.11-.21c-.2-.21,0-.24.12-.32s.32-.13.45.05a.2.2,0,0,0,0,.08A.09.09,0,0,0,52,42c0-.05.06-.11,0-.14s-.19-.23-.34-.3a6.75,6.75,0,0,0,.59-.4c.14-.15.28,0,.41.08s.12.09.18,0a.13.13,0,0,0-.05-.16c-.15-.06-.2-.19-.28-.31s-.07-.1,0-.15.09,0,.12,0a.09.09,0,0,0,.14,0c.17-.2.56-.2.55-.57,0-.11.1-.17.15-.25a.15.15,0,0,1,.19-.07c.11,0,0,.16,0,.23s.17-.25.35-.18l0,0c-.05-.38.16-.33.42-.27.07,0,.12-.11.12-.2s0-.22.11-.25.34,0,.28-.27l.06,0c.23.1.25-.35.5-.19,0,0,.1,0,.09-.07-.08-.38.3-.3.43-.46.12.07,0,.2.14.28.06-.11.34-.14.08-.35s0-.24.07-.22c.32.09.42-.2.61-.35.09.54.09.54.26.7.17-.17-.08-.3-.06-.46s.2.07.31,0c-.28-.68.38-.57.65-.79.14.12-.12.2,0,.31s.2-.18.23-.31c.09-.42.54-.52.76-.83,0,0,.11,0,.16,0a.18.18,0,0,0,.27-.13c.08-.26.39-.34.46-.6,0-.08.11-.08.19-.09a.66.66,0,0,0,.39-.23c.12-.2.15-.27.32,0s.22,0,.33-.09.19-.28.41-.27.2-.09.19-.27.19-.34.39-.37a.44.44,0,0,0,.27-.09c.08-.07.16-.06.2,0s.08.16.18.08,0-.12,0-.19-.2,0-.1-.17.13-.09.24-.08.36.06.25-.24.12-.22.24-.25a1.31,1.31,0,0,0,.69-.44c.09-.09.18-.07.27-.1s.42-.13.47-.4c0-.11.07-.15.18-.08s.09,0,.11,0a4.73,4.73,0,0,1,1.1-.66c0-.29.37-.18.39-.43,0-.06.11,0,.11,0s0,.12,0,.12a.11.11,0,0,0,.11-.12c-.07-.28.06-.36.32-.33a.32.32,0,0,0,.35-.2c0-.11.14-.27.25,0,0,0,.43-.16.42-.25,0-.41.33-.28.49-.39a.81.81,0,0,1,.37-.09c.17,0,.26-.06.31-.26s.13-.37.42-.32c.08,0,.15-.15.22-.23s.21-.27.42-.24a.18.18,0,0,0,.12-.05,1,1,0,0,1,.79-.3c.13,0,.24,0,.23-.19a.2.2,0,0,1,.23-.23c.23.06.34,0,.34-.23a.05.05,0,0,1,0,0c.11-.24.2-.25.46,0,.06-.22.1-.46.42-.39a.22.22,0,0,0,.24-.21.16.16,0,0,1,.16-.17c.35,0,.53-.26.74-.48s.23-.3.44-.13c0,0,.12,0,.1-.06-.07-.26.08-.34.29-.36a.29.29,0,0,0,.28-.21c.08-.17.25-.4.39-.38a.42.42,0,0,0,.5-.27s.08,0,.12,0c.32-.08.67-.12.78-.53.25,0,.26-.22.38-.34s.17-.12.24,0a.15.15,0,0,0,.28,0c.09-.13.25-.2.28-.4s.3-.37.51-.41.27-.17.4-.24.29-.11.38-.25a.31.31,0,0,1,.23-.18.66.66,0,0,0,.48-.31c.12-.16.39-.05.44-.29,0,0,.15.22.26,0s.24-.15.38-.19A.77.77,0,0,0,82,21.5c.06-.13.22-.11.32-.16S82.73,21,83,21c.07,0,0-.12.06-.19s.14-.19.18-.14c.24.24.23,0,.3-.13a2.26,2.26,0,0,1,.77-.34c.06,0,.09-.06.11-.12s0-.11,0-.11c.41.07.45-.56.87-.47a2.59,2.59,0,0,1,.58-.51,9.51,9.51,0,0,1,1.54-1c.1-.05.19-.13.32-.09s.23,0,.25-.14a.13.13,0,0,1,.11-.12,1.12,1.12,0,0,0,.53-.35,6.78,6.78,0,0,1,.93-.69,7,7,0,0,0,1.2-.74,3.73,3.73,0,0,0,.43-.36.82.82,0,0,1,.52-.28.89.89,0,0,0,.53-.35,1.45,1.45,0,0,1,.67-.54,3.23,3.23,0,0,0,.83-.49c.28-.2.61-.31.88-.51s.66-.3,1-.5a1.59,1.59,0,0,1,.65-.32.8.8,0,0,0,.44-.26,1.2,1.2,0,0,1,.81-.46.21.21,0,0,0,.17-.1c.22-.27.58-.34.8-.61.26.07.33-.16.48-.29a1.89,1.89,0,0,1,.7-.44,1.06,1.06,0,0,0,.57-.3s0-.05.07-.05c.59,0,.94-.51,1.46-.68a1.17,1.17,0,0,0,.41-.31.33.33,0,0,1,.55,0,.65.65,0,0,0,.34.23c.19.05.18.21.17.35s-.12.19-.27.19a1.36,1.36,0,0,0-1,.5,1,1,0,0,1-.47.29,12.38,12.38,0,0,0-1.23.72,1.12,1.12,0,0,0-.21.17.92.92,0,0,1-.68.29.19.19,0,0,0-.19.06,2.66,2.66,0,0,1-.82.54c-.13.06-.23.18-.39.15a.16.16,0,0,0-.15.07c-.27.37-.76.4-1.07.67s-.87.48-1.27.78-.81.54-1.22.8-.52.38-.79.55-.22.29-.44.24a.08.08,0,0,0-.1.05c-.14.34-.48.46-.75.65s-.45.19-.55.45c0,.09-.13.1-.22.13a3.08,3.08,0,0,0-.86.49,2,2,0,0,1-.84.5.23.23,0,0,0-.14.09c-.14.33-.47.41-.7.62a.31.31,0,0,1-.3.11c-.16,0-.17.05-.13.17a.06.06,0,0,1-.06.08c-.24,0-.32.17-.45.29s0,0-.06.06c-.33,0-.53.34-.86.36-.09,0-.25,0-.15.19s-.11.12-.18.15a1.41,1.41,0,0,0-.65.53.4.4,0,0,1-.28.18,1.85,1.85,0,0,0-1,.6.48.48,0,0,1-.2.15,9.67,9.67,0,0,0-1.12.66l-1.09.7a7.57,7.57,0,0,0-1.25.87c-.58,0-.87.48-1.24.82a5.38,5.38,0,0,1-1.43.78c-.13.06-.23.1-.26.25a.21.21,0,0,1-.07.11c-.44.2-.78.57-1.23.77-.09,0-.2,0-.25.14a1.3,1.3,0,0,1-.8.59c-.24.1-.37.34-.62.44-.51.2-.86.66-1.37.87-.09,0-.14.14-.2.22s-.1.12-.18.08-.16.06-.23.11-.24.45-.55.24c-.07-.05-.08.05-.09.1a.47.47,0,0,1-.27.3c-.41.24-.8.52-1.2.78,0,0-.06.05-.07,0-.28-.17-.36.16-.51.25a4.82,4.82,0,0,1-1.21.73c-.07.28-.41.12-.53.33s-.38.25-.54.41-.48.25-.71.39a5.88,5.88,0,0,1-.72.51c-.07,0-.13.09-.19.1-.41,0-.65.32-.92.57a.92.92,0,0,1-.25.15c-.08,0-.14,0-.15-.06s0-.1-.06-.08-.06.06-.07.1.13.22-.07.32-.18-.17-.34-.15c.07.19,0,.34-.13.5s-.12.2-.22,0-.11,0-.14,0-.18.13-.26.22-.23,0-.31.11l-.15.27a.89.89,0,0,1-.35.26c-.14.06-.3.06-.39.22s-.17-.13-.26,0,0,.23-.17.28-.08.08-.11.07c-.33-.08-.3.22-.41.38h0c-.07-.1-.24-.07-.29-.16s-.07,0-.14,0c-.25.14-.33.4-.47.61-.28.39-.34.41-.75.22,0-.11.11-.21,0-.34-.16.11-.09.22,0,.33s-.06.12,0,.16.11.31-.08.31-.23.36-.46.15a.11.11,0,0,0-.06,0c-.1.38-.51.38-.73.59s-.71.3-.88.69c0,0,0,0-.07,0-.29.23-.34.22-.54-.1l0,.08c0,.13.18.21,0,.39a.76.76,0,0,1-.62.29c-.06,0-.12,0-.1,0,.08.25-.15.29-.27.38s-.19.34-.42.13c-.05,0-.1,0-.11.1s-.26.28-.41.4,0,.07-.06.06c-.18,0-.38-.17-.45.19,0,.11-.29.2-.4.36a.24.24,0,0,1-.26.11c-.19,0-.2.12-.29.2s-.07-.25-.22-.27-.1.08-.09.14.09.42-.26.37c-.09,0-.08.1-.08.17a.37.37,0,0,1-.3.4h0c-.1.06-.29,0-.26.21s0,.17-.15.14-.11,0-.12.08c0,.29-.25.39-.47.52s-.45.36-.72.5.09.27-.07.38,0-.17-.17-.22a.39.39,0,0,0,0,.45c-.19,0-.2.24-.24.41a.3.3,0,0,1-.14-.36c.08-.2-.18-.22-.17-.39s-.18,0-.31,0c.31.18.26.48.31.75-.25,0-.07-.28-.28-.32a.48.48,0,0,1,0,.46c-.15.26,0,.57,0,.88a1.28,1.28,0,0,0,.15-.23c.07-.22.07-.16.25,0a5.9,5.9,0,0,0,.8.49,7.82,7.82,0,0,1,.88.63s.11.06.09.13-.08.18.05.21.12-.12.17-.18l.09-.06A.48.48,0,0,0,53,47a2.66,2.66,0,0,1,.63.42,4.42,4.42,0,0,0,1,.57c.21.09.17.18.1.33a.37.37,0,0,0,0,.18c.14-.08.26-.33.42-.05,0,.1.16.18,0,.28S55,48.9,55,49a.1.1,0,0,0,.11-.07,1.2,1.2,0,0,1,.28-.35c.12.15.37.14.43.31a1.22,1.22,0,0,1,0,.54c0,.08-.07.15,0,.24.25-.2.25-.2.27-.58.17,0,.16.18.26.25s.28.36.46,0c.39.06.52-.38.87-.42a.26.26,0,0,0,.15-.19c0-.2.15-.17.25-.22s.24,0,.2-.22.09-.12.12-.09c.36.36.35-.28.61-.22.1,0,0-.07,0-.11s0-.11.11-.14.43-.06.4-.39c0-.17.25-.31.46-.31s.47-.15.51-.51c0,0,0-.1,0-.1.35,0,.4-.35.6-.53a.32.32,0,0,1,.23-.09c.17,0,.26-.05.18-.23s.07-.18.15-.21a1.36,1.36,0,0,1,.59-.15,3.21,3.21,0,0,0,.76,0c.09,0,.1.06.14.12a1.29,1.29,0,0,0,.29.45.8.8,0,0,1-.59,0,.34.34,0,0,0,.29.28c.18,0,.18.13.1.28a.77.77,0,0,1-.86.39.43.43,0,0,1-.21.56c-.18.14-.42.19-.58.36s-.09.06-.11,0c-.21-.3-.23.1-.36.1s-.09.06,0,.13,0,.24-.09.28a2,2,0,0,0-.79.65,4.82,4.82,0,0,1-1.39,1c-.17.11-.29.36-.56.28,0,0-.15.11-.16.18s-.09.17-.19.19-.1.07-.07.15c.09.23.18.45.49.45a1.4,1.4,0,0,1,.37.11c-.05.07-.11.06-.17.07s-.24.08-.17.23,0,.26.26.19c.37-.12.45.32.71.4.05,0,0,.13-.06.17s-.12.2,0,.31.11.11.14,0,.12-.14.23-.1.19.09.08.22,0,.09.06.12a.19.19,0,0,1,0,.3c-.09.1-.13.16,0,.19s0,.07,0,.09c-.2.11-.11.26,0,.41l-.49,0c.07.09.11.2.23.14s.24,0,.32,0,.22,0,.27.18,0,.31-.13.34,0,.15,0,.19c-.13.13-.21,0-.3,0s-.21,0-.16.06-.09.26.13.24a.53.53,0,0,1,.17,0c.11.07.16.13.07.28s-.28.23-.2.46-.13.12-.22.05-.12-.12-.17,0-.11.18,0,.27.13,0,.12.09-.1,0-.14,0,0,.11,0,.14.19.22.08.32a.26.26,0,0,1-.38-.06,2.26,2.26,0,0,1-.13-.2c.07-.17.17.14.22,0a.12.12,0,0,0-.18-.12c-.12,0-.22.06-.15-.14s-.06-.13-.14-.12-.08-.09-.11-.15h0a.63.63,0,0,0,0-.45c0-.09,0-.18.14-.07s.2,0,.27-.07.09-.15-.06-.2,0-.42.14-.43.22.1.2,0,.1-.31-.07-.47-.19-.23,0-.45a.56.56,0,0,0,0-.08,2.2,2.2,0,0,1-.45-.26c-.06,0-.12-.09-.05-.17s.08-.1,0-.11c-.4,0-.5-.47-.84-.59.22-.35-.24-.07-.24-.26s-.17-.27-.35-.3-.2-.11-.27-.2a1.81,1.81,0,0,0-.37-.36c-.06-.06-.16-.11-.17-.18-.09-.41-.49-.56-.67-.88,0,0-.08-.07-.1,0-.17.29-.38,0-.46,0a4.73,4.73,0,0,1-.94-.67,2.8,2.8,0,0,0-.69-.41c-.15-.09-.37-.1-.38-.34,0-.06,0-.06-.08-.08A1.92,1.92,0,0,1,52.07,48a.14.14,0,0,0-.15,0c-.25,0-.39-.06-.4-.32s-.12-.08-.19-.07-.23,0-.12-.17,0-.15-.14-.11l-.22.11a.68.68,0,0,1,.36-.37c.13,0,.28.2.46-.06-.35.06-.52-.24-.81-.29-.06,0-.08-.07-.09-.13s-.06-.11-.12-.09-.11.06-.1.13,0,.15.08.18h.13A.23.23,0,0,1,51,47c0,.14-.18.2-.3.28-.07-.11-.36,0-.29-.26,0-.08,0-.15-.1-.12-.28.1-.22,0-.16-.21s0-.08,0-.13c-.16,0-.34.19-.44.07s-.4-.19-.49-.36S49,46,48.8,45.92c-.32-.18-.71-.31-.71-.78,0-.08,0-.15-.11-.16s-.08.09-.11.14-.34.19-.38,0-.13-.13-.21-.18a3.85,3.85,0,0,1-.57-.5c-.05,0-.07-.09-.16-.09a.23.23,0,0,1-.16-.06c-.17-.29-.5-.26-.74-.41a.87.87,0,0,1-.37-.45c-.11-.29-.22-.35-.49-.22s-.22-.05-.29-.1-.18-.32-.43-.28c-.08,0-.15-.13-.16-.23a1.51,1.51,0,0,1,0-.3c-.06,0-.07.05-.08.09s0,.2-.16.14,0-.12,0-.19,0-.05,0-.08c-.21.13-.21.12-.41,0A.79.79,0,0,1,43,42c0-.09-.08-.08-.33-.13a.59.59,0,0,1-.3-.16,9.23,9.23,0,0,1-1.22-1c-.08-.1-.17-.21-.33-.12s-.16,0-.18-.09a.11.11,0,0,0-.13-.09c-.27,0-.42-.06-.41-.36,0-.15-.12-.21-.24-.19a.32.32,0,0,1-.31-.2c-.07-.15-.09-.22-.26-.09s-.13-.09-.2-.13-.16-.25-.35-.21-.15,0-.11-.17,0-.22-.15-.19c-.47.09-.75-.25-1.1-.45S37,38,36.67,38c-.12,0-.09-.13-.11-.2a.44.44,0,0,0-.42-.36.91.91,0,0,1-.72-.47.68.68,0,0,0-.58-.36c-.26,0-.4-.26-.6-.39s-.09-.17-.19-.16c-.28,0-.42-.15-.56-.32a1,1,0,0,0-.56-.34c.25-.27.24-.34-.08-.34a.94.94,0,0,1-.7-.36c-.13-.17-.25-.11-.37-.18s-.56-.18-.62-.54a.38.38,0,0,0-.21-.2c-.25-.07-.43-.28-.65-.33s-.48-.25-.74-.33-.22-.2-.26-.37,0-.43-.31-.17c0,0-.11,0-.15-.05s-.13-.27-.35-.17-.09-.1-.09-.18c0-.24,0-.24-.23-.09S28,32.17,28,32s-.09-.24-.27-.31a2.89,2.89,0,0,1-1.24-.77.38.38,0,0,0-.27-.12c-.1,0-.23,0-.25-.19s-.13-.1-.2-.13-.39-.12-.48-.34a.17.17,0,0,0-.09-.08c-.24,0-.16-.13-.2-.25s0-.25-.15-.29,0,.19-.12.25h-.08c-.1-.35-.46-.38-.69-.57h0c-.27-.07-.54-.14-.44-.51-.46.05-.55,0-.78-.42-.06-.1-.09-.34-.27-.07-.06.08-.11,0-.17-.07-.3-.14-.49-.46-.86-.48-.14,0,0-.23-.19-.24s-.3-.2-.55-.16-.41-.25-.47-.49-.06-.22-.27-.2-.41-.23-.64-.32-.54-.1-.6-.44c0,0-.09-.07-.14-.08-.21,0-.42,0-.46-.33,0-.12-.27,0-.42-.1a.84.84,0,0,1-.39-.22,1.26,1.26,0,0,0-.6-.37c-.33-.14-.52-.44-.82-.63a4.37,4.37,0,0,1-.89-.55c-.09-.09-.27-.09-.4-.14-.29-.11-.29-.11-.23-.41a.21.21,0,0,0,0-.17c-.11,0-.14.08-.2.13s-.12.08-.15,0-.38-.13-.54-.25a5.87,5.87,0,0,0-.9-.6.61.61,0,0,1-.29-.35c-.08-.21-.24-.43-.53-.36-.09,0-.14,0-.18-.06A.53.53,0,0,0,11,21c-.28,0-.42-.24-.57-.4s-.51-.24-.56-.56c0,0-.05,0-.07,0-.46.13-.56-.42-.93-.48-.15,0-.05-.26-.22-.33s-.38-.31-.66-.25a.16.16,0,0,1-.12,0c-.35-.45-1-.49-1.33-.94-.34,0-.46-.51-.86-.45-.15,0-.14-.17-.24-.22a2.17,2.17,0,0,1-.68-.56,3.59,3.59,0,0,0-.85-.59,1.32,1.32,0,0,1-.63-1s0,0,0,0-.16.19-.29.1,0-.22,0-.31.16-.16.28-.12a4.44,4.44,0,0,1,1.53.92,1.09,1.09,0,0,0,.17.13c1,.61,1.86,1.36,2.88,1.89a5.58,5.58,0,0,1,.64.44c.46.33,1,.59,1.44.9a9.33,9.33,0,0,0,1.06.71s.07.07.11.08c.43.13.7.49,1.07.71a11.5,11.5,0,0,0,1.14.64,15.56,15.56,0,0,1,1.93,1.21,1.81,1.81,0,0,0,.37.18,1.77,1.77,0,0,1,.94.57s.07.07.1.07c.37,0,.57.36.89.47s.26.42.55.45a1.68,1.68,0,0,1,.68.37,4.73,4.73,0,0,0,.94.54c.36.14.61.42,1,.57s.72.23.88.63a.27.27,0,0,0,.25.15c.28,0,.38.19.54.33s.16.18.29.14a.36.36,0,0,1,.38.15,8,8,0,0,0,1.63,1.07l.42.29c.45.32.89.63,1.36.92a1.67,1.67,0,0,0,.53.32.17.17,0,0,1,.16.17c0,.07,0,.14.08.13.22,0,.32.16.48.22a2.82,2.82,0,0,1,1,.69,1.12,1.12,0,0,0,.29.19c.18.07.34.16.34.39a.14.14,0,0,0,.2.14c.33-.16.53.08.71.24a5.54,5.54,0,0,0,.75.55c.31.21.67.32.87.66,0,0,0,0,.06,0a4,4,0,0,1,1.58,1c.32.25.69.43,1,.65a3.43,3.43,0,0,1,.75.58,1.94,1.94,0,0,0,.76.48,8.56,8.56,0,0,1,1.07.7s.07.09.11.14.47.08.55.27.3.21.45.32c-.11,0-.23,0-.23.19s0,.06,0,.06.16-.13.19-.23,0,0,0,0c.16.08.43,0,.44.3,0,0,0,0,.06,0,.46,0,.75.41,1.09.65.52.36,1.08.65,1.59,1,.19.14.43.22.54.46a.06.06,0,0,0,0,0c.12.09.41-.06.35.26.2-.14.3.06.43.13a5,5,0,0,0,1,.59l0,0c.11.16.18.39.33.46s.36.07.48.17.37.18.51.3c.29.27.72.3.95.64.09.12.12.22-.09.31.66-.22,1,.28,1.46.53a2.08,2.08,0,0,1,.46.37c.1.1.52.27.14.55.1.16-.13.36.1.54,0-.16.18-.23.12-.43s.09-.23.24-.18a.61.61,0,0,1,.36.15,1.16,1.16,0,0,0,.29.25c.31.22.32.22.16.56,0,.07,0,.1,0,.13s.09,0,.11-.06l.12-.32c.17.21.51.13.63.41,0-.22,0-.47-.31-.54-.07,0-.12-.08-.11-.12s0-.26-.11-.39,0-.28.11-.27c.31,0,.3-.22.4-.37s0-.14.16-.15.07.3.25.37.12.06.17,0,.08-.1,0-.14a.29.29,0,0,1-.14-.3c0-.29-.15-.17-.31-.15.18-.24.36-.09.52-.06s.13.22.28.14.11-.18,0-.3C50.88,42.88,50.81,43,50.67,43Zm-.2,3.28c-.2-.35-.55-.23-.82-.32a.08.08,0,0,0-.1.1c0,.06,0,.1.11.09s.36-.1.39,0C50.14,46.53,50.3,46.33,50.47,46.29Zm-8.68-5.51c.09-.13.25-.23.23-.42s0-.12-.07-.14a.12.12,0,0,0-.15.06C41.73,40.44,41.64,40.61,41.79,40.78ZM59.11,53c-.15.22,0,.34.16.48C59.41,53.27,59.21,53.16,59.11,53Zm-4-3.35c0-.16.24-.27.09-.55C55.07,49.35,54.91,49.47,55.06,49.68Zm9.65-16.8a.58.58,0,0,0,.42-.16s0-.09,0-.12-.08-.06-.14,0S64.86,32.77,64.71,32.88ZM57.4,51c-.08.09,0,.16,0,.22s0,.13.09.12.06-.11,0-.17A.2.2,0,0,0,57.4,51Zm.46,1,.34-.3C57.94,51.61,57.94,51.61,57.86,52Zm1.5-14.43c0-.07.06-.1.06-.12s.13-.17,0-.27-.08,0-.11,0,0,.19,0,.29S59.32,37.55,59.36,37.6ZM54.47,49c0-.09-.14-.07-.21-.08s-.06.08,0,.12.09.09.15.08S54.45,49.1,54.47,49ZM60.76,35.4s0-.08-.06-.08-.13.09-.14.18a.07.07,0,0,0,.08.08C60.77,35.59,60.72,35.46,60.76,35.4Zm-1.85,1.28c.13,0,.2.16.3.07a.15.15,0,0,0,0-.11C59.14,36.55,59.05,36.65,58.91,36.68Zm-7.79,7c0-.18-.07-.26-.19-.29a.08.08,0,0,0-.1,0Zm3.2,4.57c-.06,0-.11,0-.12.09s0,.1.09.11.11,0,.12-.09A.09.09,0,0,0,54.32,48.28Zm3,3.49c.08.07.14,0,.2,0s.15,0,.12-.11-.1-.1-.17,0Zm-31-21.69s0-.08-.05-.08-.08.05-.09.1,0,.09.08.08S26.32,30.14,26.32,30.08Zm38,2.59s0,0,0,.06.08.12.16.11.09-.06.07-.09a1.11,1.11,0,0,0-.19-.09ZM59.19,55.22a.16.16,0,0,0,0,.16.13.13,0,0,0,.13.09c.06,0,.06-.09,0-.15A.15.15,0,0,0,59.19,55.22ZM35,36.21c0,.11,0,.2.06.25s.06,0,.07,0S35.06,36.29,35,36.21Zm16.83,6.32c0-.06,0-.05-.08-.05a.21.21,0,0,0-.12,0c0,.05,0,.08.06.08S51.75,42.58,51.79,42.53Zm-.38.41c.07.19.08.3.22.36C51.64,43.16,51.62,43.06,51.41,42.94Zm2.64,5.69c0-.06,0-.06-.09-.08s-.11-.16-.12,0S54,48.64,54.05,48.63Zm-1.49-1.39s0-.05,0-.05a.16.16,0,0,0-.16.05s0,.06,0,.07S52.51,47.29,52.56,47.24Zm9.19-1.4a.22.22,0,0,0,.21,0s0,0,0-.07A.13.13,0,0,0,61.75,45.84Zm-9.19,2.21c0-.06,0-.14-.08-.17s-.07,0-.09.08,0,.12.09.15S52.55,48.1,52.56,48.05Zm-3.88-2.88c0-.07-.1,0-.15,0s-.06,0,0,.06a.38.38,0,0,0,.16.05A.41.41,0,0,1,48.68,45.17Zm-1.29-.91s0,0-.07,0a.1.1,0,0,0-.1.11.45.45,0,0,0,0,.11A.25.25,0,0,0,47.39,44.26ZM45,42.61s-.07,0-.07.08,0,.1.08.12.07,0,.08-.08A.11.11,0,0,0,45,42.61ZM56,38.4a.32.32,0,0,0,0,.27A.29.29,0,0,0,56,38.4ZM32,33.91c0-.06,0-.08-.06-.1s-.09,0-.11,0a.09.09,0,0,0,.07.12S32,33.92,32,33.91Z"/><path class="cls-1" d="M71.61,95.16a.09.09,0,0,0,0-.15c-.16-.1-.2-.26-.23-.5-.21.17-.2.34-.11.47s.23.42.06.55a.5.5,0,0,1-.59.06c-.11-.07-.23,0-.22.19,0,.49,0,.53-.39.7a.2.2,0,0,0-.15.2c0,.1,0,.23-.19.25s-.35,0-.35-.21a.14.14,0,0,0-.11-.13.82.82,0,0,0-.06.38c0,.07,0,.14,0,.19s.08-.07.13-.08.12.1.13.18,0,.22-.14.21-.44.17-.65,0c0-.05-.09,0-.12.08.32.17,0,.43.14.64-.26,0-.15-.25-.26-.38-.12.17-.11.38-.24.53s-.14.18-.24.15,0-.18,0-.27.18,0,.23-.06,0-.14-.09-.16-.12.12-.16.2c-.46,0-.49.4-.59.72s0,.18-.23.26c-.12-.16.13-.36,0-.52.09-.09.23-.15.18-.31a.08.08,0,0,0-.11,0c-.12.08-.06.21-.06.31v0c-.09,0-.22,0-.22.11.07.46-.18.17-.37.13.12.4-.32.61-.31,1,0,.18-.29.17-.34.35-.36-.07-.7.38-1,0-.11.09-.08.18-.09.26,0,.3-.15.1-.26,0s0,.39-.25.36-.13.24-.31.16-.15-.2-.23-.32c-.15.29-.06.63-.26.76s-.13.06-.16,0-.11-.27-.24-.16-.07.25.1.3l.08,0c.05,0,.07.09,0,.14a.09.09,0,0,1-.12,0,1.07,1.07,0,0,0-.25-.16c-.31-.13-.31-.14-.29.19,0,.15,0,.28-.19.29a1.83,1.83,0,0,0-.69.28c-.22.1-.24.09-.26-.17,0-.09-.09-.19,0-.29a.14.14,0,0,0,0-.11.77.77,0,0,1,.28-1s.08-.06.1,0c.18.3.24.09.28-.07s.14-.08.2-.12a6,6,0,0,1,1-.6,1.46,1.46,0,0,0,.29-.17,3,3,0,0,1,1-.55l.07,0c0-.36.38-.34.6-.48a1.76,1.76,0,0,0,.4-.32c.2-.22.45-.37.66-.58a.45.45,0,0,1,.3-.16.3.3,0,0,0,.31-.18s0-.09.08-.06c.26.13.25-.08.28-.22a.34.34,0,0,1,0-.17c.09,0,.12,0,.17.09s.09.08.13,0,.07-.07.06-.11c0-.31,0-.55.37-.69s.35-.45.64-.55c.14.09,0,.26.11.36.2-.12.24-.4.27-.56a.58.58,0,0,1,.44-.46c.17-.08.32-.13.22-.37,0,0,0-.1.07-.11a1.26,1.26,0,0,0,.42-.33A1.7,1.7,0,0,1,71,93.8c.14-.08.31-.16.37-.34s.17-.19.25-.3.09.09.13.15a.09.09,0,0,0,.1.06.1.1,0,0,0,.07-.1c0-.12-.11-.25,0-.36s.07.25.22.32c0-.09,0-.2,0-.26s-.21-.34,0-.46.15-.27.27-.36.23-.26.42-.29.16-.11.23-.18,0-.23,0-.32.22,0,.3-.14,0-.06,0-.07-.14-.07-.07-.16.13,0,.2,0,.1,0,.07-.11.21,0,.19-.17a.22.22,0,0,1,.09-.29,2,2,0,0,0,.52-.6c.12-.24.27-.47.4-.7s.36-.41.81-.3a1,1,0,0,0,0-.41,1,1,0,0,1,0-.17c0-.19.32-.25.3-.36a.38.38,0,0,1,.18-.46.59.59,0,0,0,.12-.22c0-.07.08-.14.16-.1a.16.16,0,0,1,.1.18c0,.12-.11.24,0,.38a1.56,1.56,0,0,0,.22-.59c0-.12,0-.15-.14-.07s-.13,0-.14-.11a.12.12,0,0,1,.14-.14,1.87,1.87,0,0,1,.32.08c.07-.15,0-.27-.11-.41.24,0,.3.32.45.27s.27,0,.41-.08c-.16-.08-.35-.07-.45-.24-.4,0-.19-.17-.1-.29a.61.61,0,0,0,.12-.42c0-.24-.08-.57.26-.72a.18.18,0,0,0,.08-.09,2.39,2.39,0,0,0,.13-.28,1.79,1.79,0,0,0-.22-.13.12.12,0,0,1-.06-.18c0-.07.14-.14.14-.21s-.15,0-.19-.1,0-.29,0-.45A6.1,6.1,0,0,0,77,82.17c.16-.15.17.08.27,0a.45.45,0,0,1,0-.08c-.27-.21-.52-.44-.8-.62a1.28,1.28,0,0,1-.57-.73.57.57,0,0,1-.74,0,.28.28,0,0,0-.32,0c-.32.14-.54-.08-.79-.18s-.28,0-.25.12,0,.3-.26.24h-.09a4.06,4.06,0,0,0-.85.13c-.26,0-.52-.21-.79,0v0c0,.13.29.11.13.29s-.33,0-.41-.19,0-.08-.07-.1c-.31.16-.05.34,0,.54-.16.06-.3-.19-.43,0-.07-.16,0-.27,0-.38s0-.13-.08-.14-.12.06-.16.12a.05.05,0,0,0,0,0c.13.47-.26.45-.52.52a.75.75,0,0,0-.27.13c-.31.25-.47.21-.61-.16,0,0,0-.08-.11-.1-.09.21,0,.51-.29.7a1.1,1.1,0,0,1,0-.44c0-.15,0-.2-.19-.14s0,0,0,.07-.33,0-.36-.12.18-.14.28-.18.2-.07.2-.22.09,0,.13-.06,0-.14,0-.24c.24,0,.41.16.63.21.14-.22-.11-.2-.26-.32.34,0,.61,0,.88,0l0,.15c-.25,0-.22.34-.39.46s0,.16.12.14.27-.09.26-.27v-.34c.13-.05.08-.17.12-.26s.1-.07.18,0,0,.17.12.13c-.07-.19.26-.19.18-.42s-.2-.45-.61-.47c0-.2.06-.46-.21-.58-.1.09-.11.22-.16.32s-.15-.14-.29-.13-.12-.08,0-.16.06-.11,0-.16-.08-.11,0-.16.13-.22,0-.22-.18-.11-.27-.17c-.12.17,0,.37-.06.54-.37-.05-.49-.16-.55-.48s.1-.45-.27-.4c0,0,0,0,0-.07s.08-.25-.12-.16-.25.14-.09.29a.09.09,0,0,1,0,.15c-.06,0-.09,0-.13,0-.22-.24-.15-.5-.09-.82-.18.11-.45,0-.45.33,0,.07-.13.15-.22.2s-.24,0-.21-.16-.08-.35,0-.54a.14.14,0,0,0-.11-.16c-.06,0-.1,0-.15.06s-.25.24-.11.42l-.1,0c-.28,0-.06-.35-.31-.39s-.2-.27-.19-.45,0-.2-.1-.22-.13.12-.17.19,0,0,0,.06c-.23-.29-.23-.29,0-.49.07,0,.11-.1.07-.17s-.11,0-.15,0a.7.7,0,0,1-.23.11c-.08,0-.13.07,0,.19s0,.31-.14.47c-.15-.36-.47-.47-.75-.62s-.08-.28-.18-.41c-.24.33-.24.33.1.4h.09c0,.09.09.15,0,.28-.25-.19-.61-.22-.64-.64,0-.14-.16-.19-.26-.17s-.24,0-.22-.17-.12,0-.13,0c0,.39-.26,0-.42.18,0-.21.35-.35,0-.49,0-.06.08-.19,0-.17a.42.42,0,0,1-.35,0c-.11,0-.16.08-.17.14s.09,0,.14,0,.15.15.27.13a.2.2,0,0,1-.25.11.2.2,0,0,0-.22.08c-.11.13-.23.14-.23-.09s-.08-.1-.12-.15a1.12,1.12,0,0,1-.31-1.13c-.19.07-.18.18-.19.28,0,.35,0,.35-.39.48-.11-.1,0-.25-.08-.35-.11.14-.2,0-.29,0-.26,0-.29-.12-.25-.32,0,0,0-.07,0-.08s0-.29-.2-.26-.31,0-.29.24,0,.15-.05.17-.14-.08-.16-.16a.29.29,0,0,1,0-.13c0-.09,0-.13-.13-.13s-.09,0-.1.11l0,.16c-.05,0-.14-.11-.13-.16,0-.2-.11-.2-.24-.26a.53.53,0,0,1-.35-.69c-.24-.15-.45.08-.69.06s-.07.2-.14.31c-.11-.2-.4-.12-.49-.39.16,0,.36,0,.4-.26s-.21,0-.29,0-.09.14-.2.12-.36.11-.51-.17a.54.54,0,0,1-.07-.47c-.12-.1-.18,0-.26,0s-.24.06-.26-.06-.07-.21,0-.31.09,0,.09-.12a.25.25,0,0,0-.29-.3s0,.09,0,.15c.1.43,0,.5-.4.41a1.24,1.24,0,0,1-.84-.62c-.09-.14-.33-.16-.4-.35-.27,0-.1-.29-.2-.33a.36.36,0,0,1-.24-.32c-.06.18-.32.24-.25.5,0,.08-.16,0-.17,0-.07-.22-.42-.14-.44-.43,0-.07-.2-.18-.3-.17-.28,0-.4-.25-.64-.28,0-.21-.1-.24-.27-.14s-.14,0-.1-.12c.11-.29,0-.53-.3-.46s-.51-.17-.7-.31-.31-.29-.5.13a.59.59,0,0,0-.4-.34.18.18,0,0,1-.12-.12c0-.14-.07-.25-.26-.19,0,0,0-.09,0-.14s.23,0,.15-.2l-.14.21c-.15-.09,0-.24-.09-.35-.13.05-.28.27-.35-.06,0-.11-.11-.13-.2-.08s-.13-.17-.3-.15,0-.2-.11-.32c-.21.28-.47.2-.68,0s-.38,0-.35-.22.23,0,.34-.11a.41.41,0,0,0,.22-.23,1.2,1.2,0,0,1-.7,0c0-.11.17-.13.09-.25a.19.19,0,0,1,0-.08s.13-.09,0-.17-.06-.05-.07,0,0,.11,0,.17,0,.08,0,.12c-.22-.15-.24.14-.38.17a.87.87,0,0,1,.13-.73c.11,0,.21.1.34,0-.06-.13-.21-.1-.3-.18a.1.1,0,0,1,0,0c.35-.19.6.11.83.24.38.22.76.43,1.15.63a5,5,0,0,0,1.08.61c.12,0,.15.2.28.25s0,.07,0,.11a.23.23,0,0,0,0,.31s.07,0,.08,0c.24-.3.23-.28.59-.13s.5.38.8.51a5.19,5.19,0,0,1,.62.23,5.1,5.1,0,0,1,.78.53,1.22,1.22,0,0,0,.52.23c.33.1.63.26.94.38.1,0,.21.08.19.21,0,.32.19.28.38.28s.14,0,.17.06.1.25.25.09c.18.22.47.16.69.27-.08.18-.07.25.16.18s.09.26.29.23.24.11.4,0,.26.09.39.15,0,.25.1.34,0-.19.14-.24a1,1,0,0,1,.53.69c.08-.1.1-.31.24-.14a.65.65,0,0,0,.59.25,1.83,1.83,0,0,0-.47.53c.16,0,.18-.09.24-.16a.68.68,0,0,1,1-.09,1.14,1.14,0,0,1,.53.44c.13.23.4.2.62.2a.75.75,0,0,1,.49.17,1.86,1.86,0,0,0,.59.26c.15,0,.3.1.29.31s.09.13.18.14a2,2,0,0,1,.34.05c.24.06.47.14.53.42.1,0,.09-.16.23-.17,0,.15.16.25.09.43s0,.16.1.13.19,0,.12-.17-.14-.15,0-.21.24.08.24.18a1.49,1.49,0,0,0,.14.54c.11-.15,0-.31.11-.5.18.44.65.3.91.58.07.06.17.07.19.2a.13.13,0,0,0,.19.11.21.21,0,0,1,.29.1.11.11,0,0,0,.13.09c.28,0,.41.12.48.37a.15.15,0,0,0,.21.1c.29-.15.5.13.77.14,0,0,.12.06.12.1,0,.29.1.29.29.1s.28,0,.36.1.15.18.28.08a.15.15,0,0,1,.2,0c.14.19.33.18.55.15s.37-.06.37.22c0,.07,0,.13.09,0s.3-.14.44-.14.34.06.35.31a2.2,2.2,0,0,0,.18.47c.13-.26-.09-.44,0-.65.19,0,.31.26.53.14,0,0,.08.07.07.09-.09.19,0,.37,0,.55s0,.16-.07.17a.28.28,0,0,1-.2,0c-.07,0,0-.11,0-.14s0-.25-.12-.37c-.07.21-.05.48-.32.56-.11,0,0-.16-.11-.22s-.1-.11-.13-.07c-.11.19-.41.13-.46.33s-.28.22-.4.37c.08.08.21.09.28.21a1.71,1.71,0,0,0,.33-.39.06.06,0,0,1,.1,0c0,.2.4,0,.3.26s-.24-.06-.38,0,0,0-.06.05.12.18.18.21,0,.31.18.3.09-.23.19-.3a1.86,1.86,0,0,0,.39-.45.13.13,0,0,1,.22,0c.1.1.08.2,0,.24s-.21.22-.35.28c0,.08.06.06.1.06.41-.09.57,0,.58.38s.16.4.16.62.07,0,.09,0,.17-.09.21-.19,0-.14.1-.09.3,0,.45,0,.28-.17.36.07.15,0,.22,0,.07-.12.18-.14.26.21.41.23.23-.25.46-.14.35.21.55.06c.14.27.41,0,.58.14a1.15,1.15,0,0,0,.59.22c.11,0,.15.17.21.27a.63.63,0,0,0,.71.37c.14,0,.32.22.45,0,0,0,.08,0,.11,0a.07.07,0,0,1,0,.11.41.41,0,0,0-.15.25c.07.07.17,0,.24,0a.2.2,0,0,1,.11.06c0,.06,0,.1-.07.14l0,0s-.25,0-.15.17.16.06.24,0,.11,0,.16,0c.24.15.43,0,.63-.12a.17.17,0,0,0,.1-.12,4.21,4.21,0,0,1,.47-.89c0-.1.07-.22.25-.15s.11-.08.12-.14a1.07,1.07,0,0,1,.18-.39A.11.11,0,0,1,80,80c.07,0,0,.1,0,.14s-.13.08,0,.17.11,0,.15,0,.18,0,.28,0a.94.94,0,0,1-.23-.43c.35.16.35.16.61.14,0-.39-.47,0-.46-.38.09,0,.17-.27.37,0,0,0,.08,0,.11,0a.09.09,0,0,0,0-.15l-.15-.09c-.06,0,0-.14,0-.12.26.11.27-.32.52-.24,0,0,.06-.05,0-.1s-.13,0-.19-.09c.1-.13.13-.33.34-.35s.07-.06.09-.11c.22-.38.3-.41.73-.28.06,0,.1,0,.12,0a.1.1,0,0,0-.06-.1c-.27-.16-.28-.17-.1-.37s.12-.45.46-.3c.09,0,.14-.12.17-.21s0-.26.17-.26.11.16.18.25c0-.16.33-.33,0-.45,0,0,0,0,0,0,.19,0,.11-.3.24-.37s.3-.11.4.1.13,0,.16,0,0-.26.11-.35c-.14-.13-.23.06-.34,0s0,0,0-.07.27-.09.43-.07.3-.15.36.11l.12,0a.07.07,0,0,0,0-.11c0-.08-.08-.15-.11-.23s0-.08.07-.1.14,0,0-.14-.19-.2,0-.47c.1.16.16.38.44.36a3.15,3.15,0,0,0,.11-.44c0-.08,0-.16.09-.19.24-.12.21-.5.54-.55.07,0,.07-.11.07-.18V73.4c.11-.1.21.34.26,0a.73.73,0,0,1,.31-.54c.23-.17.29-.45.44-.67.17,0,0,.2.16.23s0-.29.26-.19.44.11.44-.24c.33-.18.19-.59.48-.83.08,0,.12.21.23.15a1.2,1.2,0,0,1,.36-.13c-.1,0-.14-.15-.21-.21s-.07-.27,0-.38.11,0,.16,0,.25,0,.24,0c-.21-.46.21-.44.43-.58.14.2.2.45.4.6-.11.06-.23.26-.31,0,0-.07,0-.18-.1-.21-.19.31-.21.37-.15.39s.09.1,0,.17-.09.12,0,.18.3-.2.49-.1.08-.06.08-.11,0-.2,0-.29a.18.18,0,0,0,0-.31c-.25-.09-.21-.3-.18-.46s.27-.15.42-.31c0,.2-.1.44.22.42-.06-.27-.14-.55.16-.75a.16.16,0,0,0,0-.11c0-.2,0-.39.28-.33.07,0,.16-.16.1-.2-.26-.17.06-.31,0-.48s.13-.19.28-.1.11,0,.14-.09c.09-.35.11-.36.51-.47.19,0,0-.15.06-.19s.2,0,.3,0,.06-.06.08-.09,0-.11-.08-.12-.12,0-.14-.1a.44.44,0,0,0,.39-.26c.11-.22.34-.32.47-.51s.37-.06.6-.07c-.09-.11-.22-.17-.2-.32s.08,0,.11,0,.26.22.28-.07c0-.12.18-.1.17-.27,0-.33,0-.33.34-.35,0-.14-.17-.1-.16-.25.18,0,.37.11.55,0s-.2-.11-.11-.26c.2-.35.35-.53.51-.55a.3.3,0,0,1,.29.16.12.12,0,0,0,.19,0c.06-.07,0-.14,0-.19s-.15-.09-.16-.2.42,0,.53-.24a2.39,2.39,0,0,0,.1-.52c.07-.24.32-.31.63-.23,0,0,0,0,0-.06-.13-.53.3-.76.58-1.06.14-.14.53,0,.78.21,0,.09-.11.05-.17.05s-.17,0-.15.15.1.06.18,0a.41.41,0,0,1,.47.11c.1.13.3.09.45.2,0-.19.27-.37-.08-.53-.13-.05-.12-.31-.28-.4,0,0,0,0,0,0,.24-.29.06-.64.13-1,0,0,0-.09.08-.09.23,0,.35-.32.63-.24s.24-.13.26-.28-.06-.15-.17-.12h0c-.06-.26.15-.36.32-.44s.27-.13.31-.31.2-.24.32-.34.32-.07.48.17c.06.08.15.14.21.22s.07.16,0,.18-.16.15-.09.26.07.47.16.69c0,.05,0,.12.1.1s.12,0,.07-.12c-.18-.23.11-.48-.06-.73s.25-.18.18-.35-.28-.12-.25-.31-.25-.15-.32-.36c.28-.16.36-.58.79-.67,0,.22.17.45-.21.46.1.22.32,0,.41.19s-.18.27-.11.44c.42.16.57.13.73-.14-.09-.06-.17,0-.26,0l-.29,0c.36-.15.18-.46.31-.66l-.12-.11.11,0c.08,0,.16-.08.14-.19l-.08,0c-.14,0-.16.07-.15.18s0,.06,0,.08-.23-.06-.23-.21a.59.59,0,0,1,.14-.47c.1-.07.19-.11.19-.25s0,0,0-.05c.17.19.34,0,.5,0s.06.18.13.26-.15,0-.17.08a.1.1,0,0,0,.06,0c.09,0,.11-.06.1-.14s.18.05.18,0a.6.6,0,0,1,.33-.45s0-.06,0-.07c.18-.1-.12-.26.06-.37a.34.34,0,0,0,.2-.31c0-.17.15-.24.24-.35s.11-.06.19,0,.18.28.31.28.29.06.35.24a.22.22,0,0,0,.25.09c0-.23-.16-.49.08-.68-.17-.13-.35,0-.5,0a.65.65,0,0,1-.44-.08,3.08,3.08,0,0,1,.65-.49s.06,0,.06-.05c0-.4.27-.17.36-.11s.34.22.49.05a.64.64,0,0,0,.21-.58c-.08-.35-.06-.36.22-.54,0,0,.11-.07.16,0s0,.12,0,.18-.1.06-.06.16a.64.64,0,0,0,.5-.47c0-.11,0-.22.14-.3s0-.06,0-.1c-.06-.22,0-.37.18-.39s.29,0,.17.22a.7.7,0,0,0,0,.58.19.19,0,0,1,0,.08c0,.1,0,.17.13.16l.11,0a.46.46,0,0,0-.08-.19c0-.06-.12,0-.19,0,0-.2.23-.35.21-.59s-.06-.35-.27-.4a.27.27,0,0,1,.21-.26s.06,0,.08,0a.67.67,0,0,1,.64-.07.36.36,0,0,0,.14,0c-.09-.16-.2-.34-.08-.49s.35.09.56,0l-.24-.15c-.2-.13,0-.29,0-.42s.12,0,.2.08.46.06.34.4l.06,0c.21.17.21.17.08.44.22.07.42-.06.7,0a1.06,1.06,0,0,1-.29-.45c-.05-.09-.06-.21-.23-.16s-.12-.06,0-.11l.33-.15a.18.18,0,0,0,.19-.13.74.74,0,0,1-.44-.31h0c.16.08.18.07.17,0s0-.22.06-.33.16-.31.41-.34.58,0,.7-.38c-.15-.09-.35.09-.5-.06,0-.16.24-.08.28-.24s.08,0,.14,0,.27.15.35-.06.08-.12.18-.08.33-.13.48.09c0,0,.24-.06.34-.14-.13-.08,0-.22-.07-.33s-.12-.15,0-.17a.28.28,0,0,0,.24-.39.8.8,0,0,1,.3-.45c.13,0,.22,0,.22.15s.08.07.09.05c.06-.27.44,0,.49-.34-.19-.08-.4,0-.6,0s-.18,0-.2-.09a.13.13,0,0,1,.14-.17c.12,0,.21,0,.09-.16s.11-.22.14-.22a.35.35,0,0,0,.41-.13s.15,0,.13.1c0,.3.12.28.31.21s.19-.06.14.18c0,.07,0,.15.06.19a.42.42,0,0,0,.49-.14.12.12,0,0,1,.16-.08l.32.09a.14.14,0,0,1-.06.23c-.23.14-.32.4-.47.6a2.09,2.09,0,0,0-.37.8c-.06.31-.29.4-.51.48s-.27.11-.26.31,0,.28-.22.25a.31.31,0,0,0-.31.19,3.94,3.94,0,0,1-.63.66s-.09.13-.15.14a.51.51,0,0,0-.4.51c0,.28-.32.31-.45.5s-.1,0-.09-.11,0-.12-.09-.11-.11,0-.1.06c.09.37-.3.4-.44.61,0,.05-.1.08-.13.15-.13.3-.27.57-.63.66-.13,0-.18.2-.29.29s-.29.16-.42,0a.36.36,0,0,0-.14-.16c-.06,0-.16-.05-.16,0s-.13.22,0,.36a.32.32,0,0,1,0,.44c-.14.15-.45.09-.68-.15,0,.2-.21.31,0,.48h0c0,.2-.12.31-.2.46a.71.71,0,0,1-.32.32,1.37,1.37,0,0,1-.76.22c-.09,0-.39,0-.21.27,0,0,0,.16-.1.21a.72.72,0,0,0-.32.57c0,.11-.08.15-.18.13a1.26,1.26,0,0,1-.54-.16c-.1.23.22.24.17.43s-.27.13-.4.2,0,.13-.07.19.25,0,0,.12-.17,0-.15-.12v0c0-.08.07-.19-.08-.18s-.25,0-.16.17-.27.24-.08.41c0,0-.08.06-.13.07s-.24-.1-.39-.12a1.36,1.36,0,0,1-.71,1l.16.3s0,0,0,.07-.27.07-.24.28-.17.12-.27.16-.19,0-.25,0,.1.08,0,.15a.2.2,0,0,1-.11.06c-.24,0-.42.13-.36.43,0,.09-.06.12-.13.14a.92.92,0,0,1-.46,0c0,.17.27.4-.11.39-.12,0-.12.11-.12.19s-.09.27-.21.21c-.3-.14-.28.08-.29.24s-.06.15-.16.16c-.38,0-.51.35-.72.59,0,.06,0,.19-.16.11a1,1,0,0,0-.74-.1c-.05.1,0,.13.08.17s.17.08.06.19.06.19.11.29.14.18,0,.26-.22,0-.3-.07,0,0,0,0c0-.21-.16-.3-.33-.2a.29.29,0,0,0-.11.43c.06.1,0,.16,0,.24h0a.63.63,0,0,0-.25-.07c-.18,0-.27,0-.31-.21s-.12-.06-.18,0-.05.1,0,.14.09.08.07.14,0,.2.18.16.19-.14.26,0,0,.21-.09.32-.13.39-.28.56c-.28.34-.34.34-.59-.08a.26.26,0,0,0,0,.34c.12.17.11.16-.07.27s-.28.21-.44.29a1,1,0,0,0-.31.47c0,.15-.18.2-.23.33l-.08-.06c-.06-.08.08-.24-.08-.25S96,66,96,66.07s.14.17,0,.31-.3.27-.58.11c-.17.09.11.31-.09.36s0,.23-.17.29-.24.15-.39.14-.1,0-.11.1a.15.15,0,0,1-.09.14c-.09,0-.16.14-.27.11s0-.19-.1-.29l-.4.1c0,.16.24.21.19.41s.07.07.13.05.09,0,.09.06,0,.06,0,.06c-.19,0-.21.13-.28.27a.58.58,0,0,1-.48.34c-.11,0-.24.1-.32-.09s-.16-.12-.24,0,0,.12.07.17.07.21.11.31h0c-.18.2-.18.54-.49.65.1.13,0,.15-.1.15s0,.22-.2.11-.27,0-.39.09,0,.23,0,.35,0,.13-.09.16-.19.11-.32.08-.2,0-.22.18a.32.32,0,0,1-.35.26c.07.11.21,0,.28.13a2.66,2.66,0,0,0-.58.3c0,.14.22,0,.28.19-.24,0-.36.39-.7.22-.09,0-.14.06-.08.2a.73.73,0,0,1-.13.4.17.17,0,0,1-.12,0c-.07,0,0-.17-.17-.21,0,.22.19.47-.13.68,0,0-.1-.13-.19-.19a.11.11,0,0,0-.15,0c-.06.07,0,.08.05.11s.13.33,0,.32c-.34,0-.38.28-.44.42s-.25.28-.31.41c-.14.31-.49.4-.6.7s-.18.33-.42.18-.23,0-.33.13-.07.38-.32.46-.17.24-.32.35-.23.29-.41.37c.07.08.22,0,.24.22-.35-.11-.45.15-.63.34s-.34.49-.66.55c-.09,0-.07.11-.09.17s-.13.42-.38.53-.19.41-.44.48c0,0,0,.09-.08.1-.32.06-.4.25-.35.55,0,.06-.11.08-.17.11s0-.2-.06-.28c-.18.19-.37.37-.26.67a.11.11,0,0,1-.11.15c-.06,0-.08-.07-.1-.12a.29.29,0,0,1,0-.13c0-.09,0-.14-.09-.15s-.09.05-.11.11,0,.07,0,.09.08.34,0,.47-.25.2-.22.4-.08.11-.14.15a1.24,1.24,0,0,0-.53.7c-.08.23-.2.43-.46.45s-.23.28-.32.42a9.86,9.86,0,0,0-.77,1.06.35.35,0,0,1-.3.22c-.19,0-.16-.17-.22-.28s0-.11-.09-.14a.37.37,0,0,0,0,.58c.06.06.14.09.1.19s-.14.09-.25.07-.23,0-.14-.24c0-.06,0-.08,0-.1a.13.13,0,0,0-.19,0,1.32,1.32,0,0,1-.49.24c.23.07.22.28.39.33s.07,0,.07,0-.13.27.13.24.14-.17.23-.24a1,1,0,0,1,.11.64c-.13.08-.19,0-.29-.06s-.18,0-.22.07c-.11.29-.38.46-.53.73,0,.06-.1.12,0,.19a.14.14,0,0,0,.22,0c.09-.08.17-.11.25,0s-.13.12-.19.15a.24.24,0,0,0-.16.31c0,.22.05.43-.29.34,0,0-.13.06-.19.1s-.05.09,0,.1c.3.12.25.42.36.64a.68.68,0,0,1-.37,0c-.09-.16.13-.21.12-.33a.13.13,0,0,0-.13,0c-.1,0-.13.15-.18.24s-.17.39-.42.16c0,0-.11,0-.16,0s-.12,0-.11.11.09,0,.14,0,.23.08.16.22a.37.37,0,0,0,.1.52c.11.11.06.27,0,.4s-.13,0-.19,0h0c.08-.35.08-.36-.21-.38-.1,0-.17,0-.18-.12s-.15-.17-.2-.32a.58.58,0,0,0,0,.43c.09.28.09.28-.22.43.13.13.38.11.4.38a1,1,0,0,1-.13.53c0,.07-.07.14-.15.13-.3,0-.3.15-.31.34s0,.12-.08.16-.06-.19-.11-.27-.11-.15-.21-.11-.09.1,0,.2-.08.3-.19.41a4.33,4.33,0,0,0-.37.27c-.3.32-.31.31-.26.66-.14,0-.11-.23-.2-.16s-.37,0-.44.18c0,.07-.08.1-.13.07-.31-.21-.22.13-.3.22a.11.11,0,0,0,0,.18c.1,0,.1-.09.13-.11l.35-.16c.1,0,.15.11.1.18-.16.22-.21.49-.36.72,0,.06-.12.12-.18.07-.29-.22-.27,0-.26.18s0,.17-.1.18c-.25,0-.22.44-.52.44,0,0-.08.14-.12.22a.26.26,0,0,1-.22.18l0-.17c0-.06.09-.13,0-.19a.17.17,0,0,0-.12,0c-.08,0-.08.11-.09.18s.12.11.18.16A.42.42,0,0,0,73,94c0,.06,0,.12,0,.16s-.12,0-.2,0c-.25-.12-.22-.1-.37.14s0,.44-.16.65c-.07-.24,0-.53-.38-.61a.75.75,0,0,1-.09.81c-.07.1-.15,0-.22,0ZM94.75,64.79c.12,0,.24.06.31-.1-.14-.06-.21.08-.31.1s0,0,0,.07,0,.14,0,.2,0,0,.06,0,0-.13,0-.18ZM80,81.22c.15-.07.12-.17,0-.27s-.1,0-.11,0,0,.16.06.23a.08.08,0,0,1,0,0s-.09,0-.13,0a.1.1,0,0,0-.09.12s0,.07,0,.07.11-.06.13-.13S80,81.24,80,81.22Zm8.62-8.94c.08,0,.09,0,.1.1s0,.13,0,.13.1-.09.09-.16-.14-.08-.23-.07c.1-.33.36-.19.58-.15-.07-.23-.07-.23-.32-.18S88.56,72,88.59,72.28Zm-10.27,13c.08-.23.36-.26.43-.43a1.22,1.22,0,0,0,.16-.66l-.35.09.11.2a.23.23,0,0,1,0,.25c-.09.09-.16,0-.22,0a.57.57,0,0,0-.47-.08ZM108.42,53c.06-.19.11-.36.15-.54a.07.07,0,0,0-.06-.1s-.07,0-.11,0,0,.25-.13.27-.14-.18-.27-.19a.47.47,0,0,1-.16,0c-.11,0-.1.07-.13.13s0,.14.07.14C108,52.67,108.14,52.94,108.42,53ZM101.13,61l-.13-.21a.27.27,0,0,0-.37-.09c-.13.13,0,.36-.14.53s0,.1.12.12C100.69,61.18,100.74,60.92,101.13,61ZM81.32,80.22c-.11,0-.26,0-.29.13a1.57,1.57,0,0,0,0,.44s0,.11.07.09c.19-.17.23.13.37.11.07-.2-.14-.23-.2-.35S81.34,80.38,81.32,80.22ZM92,68.21c-.13-.09-.07-.4-.32-.32a.22.22,0,0,0-.13.32C91.64,68.43,91.81,68.29,92,68.21ZM80.33,80.91c0,.25-.21.47-.06.75,0,.08,0,.23.17.19s0-.15,0-.22a.83.83,0,0,1,0-.62S80.41,80.94,80.33,80.91ZM71.09,80c.24,0,.38,0,.34-.26,0,0,0-.08,0-.12s.09-.14,0-.17a.13.13,0,0,0-.17.08A2,2,0,0,0,71.09,80Zm26-17.27c-.12-.1-.06-.36-.21-.36s.07.26-.1.35c0,0,0,0,0,0l.18.16ZM69,78.32c-.1,0-.24,0-.29.07s0,.22,0,.33.05.13.12.17a.08.08,0,0,0,.11,0c0-.06.06-.14,0-.19C68.71,78.48,68.9,78.41,69,78.32Zm9.42,4c-.2,0-.21-.39-.53-.2C78.1,82.26,78.15,82.54,78.45,82.34ZM92.68,67c0,.2.27.15.31.32a.08.08,0,0,0,.14,0c.05-.05.08-.15,0-.18S92.87,67,92.68,67Zm-5.5,5.87c-.12-.24-.29-.21-.49-.22l.08.34A.5.5,0,0,1,87.18,72.91ZM76.89,89.1a1.49,1.49,0,0,0-.34.42.14.14,0,0,0,.07.18c.08,0,.17,0,.16-.09S76.89,89.33,76.89,89.1ZM57.4,72.65a.54.54,0,0,0,.09-.5.12.12,0,0,0-.14-.11.13.13,0,0,0-.05.18A.44.44,0,0,1,57.4,72.65ZM98.7,61.11a.57.57,0,0,0,.28.57s.07,0,.07,0a.15.15,0,0,0,0-.11C98.87,61.48,98.85,61.25,98.7,61.11ZM66.2,77c0-.14.17-.2.31-.27C66.16,76.57,66.16,76.57,66.2,77Zm44.49-26.33c0-.13-.16-.1-.2-.21s-.18-.14-.26-.06,0,.14.11.19a.75.75,0,0,0,.2.15S110.64,50.66,110.69,50.63ZM86.6,73.6a.75.75,0,0,0,.25-.31.11.11,0,0,0,0-.15.47.47,0,0,0-.17,0s-.08.07,0,.08C86.81,73.33,86.45,73.46,86.6,73.6ZM78,85.62s.07,0,.08-.05-.1-.18-.17-.26a.16.16,0,0,0-.23,0s0,.07,0,.08A.69.69,0,0,0,78,85.62ZM52.8,70.26c.1-.26-.11-.35-.16-.51s-.1-.06-.15,0a.08.08,0,0,0,0,.14A1.64,1.64,0,0,1,52.8,70.26ZM73,93a.47.47,0,0,0,.43.2c.08,0,.09-.1.1-.16s-.1-.1-.13-.08S73.15,92.9,73,93Zm29.94-34.32c0,.06.07.11.12.09s.25-.08.24-.25a.08.08,0,0,0-.07-.08S102.93,58.6,102.94,58.64Zm-2.72.42.16.09c.07.05.14.08.22,0s0-.07,0-.11a.21.21,0,0,0-.2-.13A.26.26,0,0,0,100.22,59.06ZM90.71,69c.08.1.09.25.26.22a.12.12,0,0,0,.09-.08C91,69,90.91,69,90.71,69ZM73.88,92.3c-.08-.1-.18,0-.27,0a.09.09,0,0,0-.11.09c0,.08.06.14.14.13A.24.24,0,0,0,73.88,92.3Zm8.53-14.84c0,.07,0,.17.11.16a.26.26,0,0,0,.2-.24c0-.08,0-.09-.11-.09A.19.19,0,0,0,82.41,77.46Zm9.17-8.93a.87.87,0,0,1-.41-.19C91.14,68.63,91.14,68.63,91.58,68.53ZM70.2,77.82s0,.05,0,.11.08.22.22.2a.06.06,0,0,0,0-.09C70.46,77.93,70.44,77.81,70.2,77.82Zm42.43-29.09c.12,0,.14-.13.13-.24a.09.09,0,0,0-.12-.08.17.17,0,0,0-.13.23C112.52,48.71,112.57,48.73,112.63,48.73ZM76.09,88.54a1,1,0,0,1,0,.38c0,.06,0,.09.07.09a.16.16,0,0,0,.09-.07C76.33,88.77,76.23,88.65,76.09,88.54ZM95.66,64.27c.09.14.16.23.29.19s.07-.11,0-.15S95.81,64.23,95.66,64.27Zm4.77-4.37c0,.1.06.13.08.19s0,.18.15.09a.12.12,0,0,0,0-.21C100.62,59.93,100.56,59.84,100.43,59.9Zm9.33-9.12c.13-.06.13-.18.12-.29s-.06-.12-.14-.1-.11,0-.07.11S109.67,50.71,109.76,50.78ZM87.68,74a.9.9,0,0,0-.11-.51C87.45,73.72,87.51,73.87,87.68,74Zm-40-7.45a2.23,2.23,0,0,1-.09.23c0,.06,0,.12.06.13a.07.07,0,0,0,.07-.09C47.76,66.8,47.82,66.73,47.72,66.59Zm15,7.94a.29.29,0,0,0-.07.36C62.84,74.79,62.75,74.64,62.74,74.53Zm-7.65-2.78c.12,0,.2.17.32.09s.06-.06,0-.11S55.24,71.66,55.09,71.75ZM108,53.91c0-.09,0-.11-.08-.1s-.12.13-.14.22a.07.07,0,0,0,.08.08A.22.22,0,0,0,108,53.91Zm1-1.56c-.08,0-.15.06-.14.14s.07.1.14.09.17,0,.14-.1S109.1,52.34,109,52.35ZM96.64,64.41c.06-.09.16-.18,0-.27s-.06,0-.07,0S96.59,64.33,96.64,64.41Zm-.69.21c0,.17-.1.28,0,.35a.06.06,0,0,0,.07,0C96.13,64.84,96,64.77,96,64.62ZM82.52,79.27s-.11,0-.19,0-.07.06,0,.09a.18.18,0,0,0,.2,0S82.54,79.32,82.52,79.27Zm-1-.39s0-.12-.07-.13-.06.08-.07.13-.05.12,0,.11S81.56,78.94,81.57,78.88ZM59.69,73.61c.12-.06.18-.14.13-.27s-.09,0-.1,0a.29.29,0,0,0-.06.27Zm36.65-8.5a.19.19,0,0,0,0,.08c0,.07.06.18.17.09s.13,0,.11-.09-.1-.09-.17-.09Zm-2.07.26c-.09.08,0,.17-.06.24s0,.09.06.08a.11.11,0,0,0,.09-.08A.21.21,0,0,0,94.27,65.37ZM93.1,66.72c0-.14-.13-.07-.16-.1s-.09-.08-.14,0a.15.15,0,0,0,0,.11.11.11,0,0,0,.15,0ZM86.62,74.5c-.06,0-.12,0-.1.1a.1.1,0,0,0,.12.09s.08,0,.08-.08A.1.1,0,0,0,86.62,74.5Zm-36-5.67c.09,0,.12-.06.13-.13s0-.12-.09-.11-.09.06-.1.11S50.58,68.82,50.65,68.83Zm32.85,7.5c0-.06,0-.12-.07-.13s-.08.07-.08.12a.11.11,0,0,0,.1.12C83.54,76.45,83.48,76.36,83.5,76.33Zm8-7.46a.34.34,0,0,0,.29-.08.18.18,0,0,0-.07-.09C91.6,68.67,91.54,68.74,91.49,68.87ZM104.76,57.1c0-.08,0-.12-.11-.13a.11.11,0,0,0-.1,0c-.06.09,0,.11.09.15S104.73,57.17,104.76,57.1ZM99.06,61c0,.14,0,.23.08.35C99.19,61.23,99.24,61.13,99.06,61Zm-3.72,4.17c-.07,0-.08,0-.07.08s0,.11,0,.11a.08.08,0,0,0,.09-.1S95.35,65.2,95.34,65.17Zm-34,8.6c-.08,0-.11,0-.11.09a.09.09,0,0,0,.11.1c.07,0,.14,0,.13-.12S61.38,73.78,61.34,73.77Zm26.71.08c0-.11,0-.13-.07-.13s-.13,0-.12.11,0,.09,0,.08S88,73.88,88.05,73.85Zm8.29-10.43c-.18,0-.2.11-.29.18C96.21,63.62,96.23,63.51,96.34,63.42ZM64.59,75.76a.05.05,0,0,0,0-.07.16.16,0,0,0-.18.07s0,.1,0,.1S64.55,75.82,64.59,75.76Zm25.83-5.58c0-.09-.11-.17-.22-.08s0,.09,0,.09.16,0,.24,0ZM80.75,81.47a.18.18,0,0,0-.11-.16s-.08,0-.08,0,.07.11.13.15ZM53.28,69.86s0,0-.05,0-.16,0-.17.13,0,.06,0,.08A.37.37,0,0,0,53.28,69.86Zm22.28,20.3c0,.07,0,.09.1.11a.07.07,0,0,0,.1,0c0-.09-.05-.12-.11-.14S75.58,90.11,75.56,90.16ZM69.8,77.86a.13.13,0,0,0,.14-.11s0-.09-.07-.09a.11.11,0,0,0-.16.09S69.74,77.85,69.8,77.86Zm41.29-28.28c.11,0,.21.09.39,0A.37.37,0,0,0,111.09,49.58Zm-42.66,28s0-.08-.08-.06a.1.1,0,0,0,0,.08s0,.07.07.07S68.44,77.67,68.43,77.62Zm-.91-.13s0,0,0,0-.12-.09-.19-.06a.06.06,0,0,0,0,.1c0,.06.13,0,.2,0S67.54,77.52,67.52,77.49Zm10.35,6c.07-.16.1-.25,0-.34A.54.54,0,0,0,77.87,83.49Zm20-20.91c0,.14-.19.17-.18.32C97.88,62.88,97.88,62.76,97.84,62.58ZM78.31,84c.08-.1.2-.11.14-.22s-.08-.08-.1-.07S78.3,83.82,78.31,84Zm-.35.36c0-.07,0-.14-.11-.13s-.08,0-.09.08.07.11.13.13S78,84.36,78,84.31Zm.65-.87c0-.06,0-.07-.09-.08s-.07,0-.07.08,0,.11.1.09A.09.09,0,0,0,78.61,83.44ZM95.33,64.53l0,.06c.06,0,.17.12.18,0S95.44,64.48,95.33,64.53ZM83,77.7s-.07,0-.07,0,.06.07.1.11.06,0,.07,0S83.09,77.72,83,77.7ZM74.39,90.92c-.08,0-.09,0-.08.08a.07.07,0,0,0,.08.08.05.05,0,0,0,0-.08A.18.18,0,0,0,74.39,90.92Zm-3.8-9.68s0,0,0-.06-.07.06-.09.1,0,.08,0,.07S70.57,81.29,70.59,81.24Zm31.12-22c0,.06.06.08.1.11s.07,0,.07,0,0-.13-.12-.14S101.73,59.19,101.71,59.21Zm-31,35c0,.07-.07.15,0,.21S70.76,94.27,70.75,94.2Zm34.56-39.05a.17.17,0,0,0,.23,0s0-.07,0-.07A.19.19,0,0,0,105.31,55.15ZM58,72.3s0-.07-.08-.06-.06,0-.06.08,0,.09,0,.09S58,72.36,58,72.3Zm47.45-15.59c.06,0,.1,0,.09-.06s0-.1,0-.11-.12,0-.11.1S105.42,56.69,105.44,56.71Zm-36,21.85a.11.11,0,0,0,.1-.09c0-.06,0-.08-.07-.07s-.07,0-.1.07ZM83.9,78.4c.06,0,.09,0,.12-.05s0-.08,0-.1a.08.08,0,0,0-.1.06S83.87,78.39,83.9,78.4Z"/><path class="cls-1" d="M41.35,94.57c.11.08.19.05.19-.09a.17.17,0,0,1,.13-.19,2.94,2.94,0,0,0,.71-.29.14.14,0,0,1,.19,0c0,.07,0,.1-.06.13s0,.13,0,.18.13,0,.16,0,.28-.12.19-.33.05-.12.13-.14l.33-.07c0,.14-.13.27-.08.43.19-.13.15-.27.07-.42s-.07-.3.11-.38a6.9,6.9,0,0,0,1.3-.91c.3-.24.67-.33,1-.57a3.25,3.25,0,0,0,.44-.38c.3-.31.71-.46,1-.77s.42-.54.77-.62.4-.09.48-.37.26-.26.4-.38.16.15.29.08c0-.2-.08-.45.28-.38a.11.11,0,0,0,.13-.09c.06-.19.15-.34.4-.28.05,0,.07,0,.05-.08-.13-.24.12-.32.2-.47a.17.17,0,0,1,.28-.07c.08.07.16.15.27.08s.07-.21,0-.32,0-.11,0-.15c.31.17.31.17.52-.06,0-.1-.16,0-.25-.09.26-.24.46-.53.69-.78s.41-.29.53-.53c0,0,.07,0,.11,0s.16,0,.17-.09c.06-.34.38-.54.46-.87,0,0,.09-.07.16-.06s-.17.15,0,.26.06,0,.1,0,.2-.24.35-.31.12-.18.14-.3.08-.48.13-.72a.14.14,0,0,1,.11-.11c.07,0,.09,0,.12.11a3.15,3.15,0,0,1,.15,1.1c0,.07,0,.1-.09.13-.26.14-.12.36-.06.51s.16.1.05.22-.12-.14-.26-.06c.16.43-.17.59-.48.77-.12-.07.09-.36-.21-.33-.1,0,0,.15,0,.22,0,.72-.54,1.08-1,1.48-.07.06-.13,0-.2,0l-.33-.1a.51.51,0,0,1-.36.34c-.13,0-.32.1-.19.34,0,.08,0,.12-.13.11s-.14,0-.19,0,.15.23.12.4c-.23,0-.31.41-.65.27-.08,0-.12.06-.12.14s-.18.28-.27.43a.19.19,0,0,1-.19.06c-.1,0-.14-.18-.26-.1s.07.16,0,.22-.17.39-.47.37c-.12,0-.22.15-.24.28s-.15.29-.28.42c-.17-.08.07-.29-.14-.37a2,2,0,0,1-.3.45c-.11-.13,0-.23,0-.32a.1.1,0,0,0-.08-.13c-.09,0-.09,0-.11.1a.77.77,0,0,0,0,.25c.07.27-.09.42-.26.58s-.12.17-.21,0-.12,0-.18,0-.22.2-.28,0a.06.06,0,0,0-.1,0c-.07.14-.25,0-.39.18.25,0,.33.25.55.24,0,.11-.11.16-.13.13s-.38.09-.53-.11c0,0-.11,0-.13.08a.2.2,0,0,0,0,.13c.1.34.11.64-.36.67-.09,0,0,.09-.06.14a.19.19,0,0,1-.21.16c-.41,0-.48.09-.62.55,0,0,0,.06,0,.06-.37,0-.5.4-.78.57-.09,0-.22.15-.17-.11s-.11-.08-.15,0a.36.36,0,0,0-.13.26.44.44,0,0,1-.25.34c-.08-.1,0-.24-.08-.34s-.22.06-.33.1.21.11.27.2-.16.07-.18.13c-.07.29-.15.34-.36.09s-.23-.11-.35.23c-.22-.17-.15-.39-.15-.6s0-.15-.1-.15,0,.09-.05.14c-.06.22-.22.43-.11.66-.15.13-.25,0-.36,0s0,.13,0,.19-.13.15-.24.13-.1-.13-.09-.21,0-.28.06-.43-.14-.15-.25-.13-.07.09,0,.1c.29.17.06.41.14.65-.17,0-.24-.25-.41-.11s-.06-.14-.14-.12-.13.11-.21.13a.49.49,0,0,1-.58-.28c0-.15-.12-.14-.25-.14a1.45,1.45,0,0,1-.55,0c-.19-.07-.14.22-.3.16s-.16-.18-.24-.27c-.17.19-.26-.21-.43-.06s-.1,0-.09-.05c.05-.24-.13-.28-.29-.34s-.08-.14-.1-.22-.06-.21-.21-.1a.1.1,0,0,1-.16-.08c0-.21-.14-.3-.29-.38s-.15-.31-.14-.48a.11.11,0,0,0-.16.07c0,.09-.14.15-.2.08a.22.22,0,0,1,0-.31,1,1,0,0,1,.59-.17.11.11,0,0,0,.13-.07c0-.08,0-.09-.1-.11s-.21,0-.29-.07-.17.07-.24.12,0-.13,0-.19a1.44,1.44,0,0,1,.07-.23c-.13.08-.32-.12-.37.14,0,0-.08,0-.11,0a.32.32,0,0,0-.52.14.26.26,0,0,1-.23.15,3,3,0,0,0-.87.33.33.33,0,0,1-.29,0,.64.64,0,0,0-.54,0,.26.26,0,0,1-.21,0c-.36-.19-.79-.16-1.15-.37-.06,0-.17,0-.2-.13s-.15-.15-.22-.19a3.75,3.75,0,0,1-1-.77.76.76,0,0,1-.34-.6c0-.13-.06-.15-.2-.12s-.33-.26-.56-.31c0,0,0-.15,0-.23s0-.16-.1-.11-.14,0-.13,0-.09-.22-.18-.31a.35.35,0,0,1-.08-.1c0-.2,0-.37-.22-.51s-.17-.35-.33-.48a.17.17,0,0,1,0-.27c.31-.26.11-.53,0-.78s0-.34.24-.32c0,0,.07,0,.14,0,0-.28-.24-.47-.2-.74,0-.06-.09-.11-.17-.05s-.1.09-.14,0,0-.14.07-.18l.19-.1s.11,0,.08-.07c-.23-.23.1-.42,0-.63s0-.21.14-.25l.08,0c-.31,0,0-.37-.19-.46a1.74,1.74,0,0,0-.19-.1c-.24-.1-.44-.22-.33-.51a.29.29,0,0,0-.26,0c-.11,0-.2,0-.18-.12s-.09-.09-.12-.07c-.19.07-.3-.25-.5-.1-.06-.15-.35-.08-.32-.35,0-.11-.11-.17-.27-.13s-.35,0-.34-.3c0,0,0-.06,0-.08s0-.26-.15-.27-.09.14-.11.23,0,.07-.05.13a1.14,1.14,0,0,1-.54-.26c-.09-.06-.1-.1-.09-.21,0-.29,0-.26-.32-.31a5,5,0,0,1-.57-.21c-.06,0-.05-.13,0-.16s.2,0,.26-.15c-.14-.06-.4,0-.37-.27,0,0-.11,0-.16,0s0,.07,0,.11a.17.17,0,0,1-.27.16,6.49,6.49,0,0,0-1-.56.41.41,0,0,1-.23-.25.18.18,0,0,0-.22-.15c-.21,0-.19-.3-.44-.24s-.2-.24-.38-.29-.29-.21-.41-.35a1,1,0,0,1-.15-.35c-.06-.15-.12-.17-.24-.1s-.36.09-.42-.13,0-.44-.3-.15a.17.17,0,0,1-.2,0,.16.16,0,0,1,0-.2.53.53,0,0,0,.12-.29c-.21.25-.44-.1-.65.09a.22.22,0,0,1-.1-.08,1.53,1.53,0,0,0-.87-.67c-.21-.08-.2-.32-.35-.39s-.37,0-.54-.08a1.77,1.77,0,0,0-.17-.12c-.23-.12-.27-.26,0-.5-.32.09-.55.19-.62-.14,0-.1-.14-.08-.22-.1a1.06,1.06,0,0,1-.76-.4c-.17-.21-.47-.29-.61-.57,0-.09-.25-.14-.39-.14a.83.83,0,0,1-.55-.25c-.09-.08-.16-.06-.05-.2s-.14-.47-.31-.4c-.37.17-.45-.11-.56-.32s-.08-.19-.21-.11-.23.06-.18-.14-.06-.12-.14-.1-.18,0-.21-.11-.09-.07-.21.06l-.18-.34c-.36.11-.38.12-.53-.24,0-.09-.29-.09-.15-.28s0,0-.07,0c-.3.15-.32-.1-.38-.28s0-.14,0-.2-.1.07-.11.14.05.22-.09.25-.16-.06-.21-.13a.8.8,0,0,0-.57-.39.46.46,0,0,1-.16-.07c-.25-.17-.26-.21-.08-.51-.12-.06-.14.07-.22.09s-.31,0-.29-.09c.14-.35-.17-.27-.3-.36s-.33-.34-.56-.38-.37,0-.25-.27c.05-.1-.06,0-.1,0-.2.05-.31,0-.25-.22s-.11-.25-.14-.4c-.15,0,0,.23-.13.24s-.29-.07-.29-.14-.16-.12-.25-.13-.19-.1-.21-.23-.08-.25-.27-.19-.28-.06-.39-.15a2.21,2.21,0,0,1-.78-.74.48.48,0,0,0-.23-.19c-.19-.1-.51,0-.52-.38,0,0,0,0,0,0-.29.11-.31-.24-.49-.3a.71.71,0,0,1-.48-.51c0-.14-.11-.13-.22-.14A.4.4,0,0,1,3,67.79c-.05-.18-.25-.22-.43-.18s-.24,0-.23-.17-.07-.13-.17-.15l-.36-.15c-.19-.06-.27-.18-.16-.36-.09-.08-.15,0-.21,0a.62.62,0,0,1-.71-.26.37.37,0,0,1,.05-.4c.09-.15.27-.26.13-.49,0-.06.17-.17.15-.32s0,0,.07,0c.26.19.27.17.42,0s0-.32.17-.36A1.29,1.29,0,0,1,2.2,65a.42.42,0,0,1,.12,0c.31.2.46.56.78.76.09.06,0,.16,0,.23h.43c.2,0,.34.14.28.28s.08.26.17.36,0-.21.19-.24a.87.87,0,0,0,.7.38c.21,0,.29.27.46.39a1.32,1.32,0,0,0,.26.18c.21.09.48.17.33.51,0,.07.2.18,0,.25a.22.22,0,0,0-.11.32s.07,0,.11,0,0-.19,0-.29,0,0,0,0c.21.09.18-.17.3-.22s.15.13.2.22a1,1,0,0,0,.5.43c.25.09.51.23.37.6,0,0,0,.09,0,.1a.14.14,0,0,0,.16,0c.22-.2.32-.22.48,0a2,2,0,0,0,.87.57c-.11.24-.06.44.14.44s.52.23.75.38a2.4,2.4,0,0,1,.74.64.3.3,0,0,0,.4.11c.16-.1.27,0,.31.15s.07.19.15.19.29.17.43.27a.94.94,0,0,0,.53.29,1.46,1.46,0,0,1,.94.68.42.42,0,0,0,.24.21,1.68,1.68,0,0,1,.74.44,2,2,0,0,1,.54.61c.12.31.14.31.44.15.07,0,.14-.06.2,0s.19.29.41.26c0,0,0,.06,0,.11s.12.25.26.3a2,2,0,0,1,.61.35c.21.16.5.24.74.39a1.3,1.3,0,0,1,.41.36c-.1.12-.19-.14-.32,0s.11.14.17.15a.56.56,0,0,1,.42.26c.07.13.19.11.31.08s.22-.09.24,0c.07.33.42.27.59.47a.33.33,0,0,0,.26.13c.08,0,.18,0,.19.07.08.3.4.3.56.47s.37.07.45.3.33.15.49.24a1.64,1.64,0,0,1,.63.51c-.17,0-.35.06-.47-.15a.18.18,0,0,0-.26,0,1.29,1.29,0,0,0,.2.43c.18-.07.39-.07.52-.24a.33.33,0,0,1,.44.29.17.17,0,0,0,.18.15c.39,0,.51.09.62.49,0,0,0,0,0,0,.19-.14.31-.08.48.11a5.1,5.1,0,0,0,.83.58c.09.06.21.16,0,.23-.05,0-.12,0-.09.09a.23.23,0,0,0,.1.07.39.39,0,0,1,.34.26.56.56,0,0,0,0,.12c.32-.12.61-.12.79.23,0,0,.09.09.14,0s.19,0,.25.09.16.44.47.31c.32.27.8.33,1,.72a.37.37,0,0,0,.39.2.43.43,0,0,1,.43.12,2.14,2.14,0,0,0,.66.5c.06,0,.08.06.1.12s.07.14.3.14c.08,0,.19,0,.23.08a.7.7,0,0,0,.57.34.09.09,0,0,1,.08.07c0,.14,0,.33.24.16.1.12.2.23.3.36s0,.15.12,0,.17-.08.3,0a.71.71,0,0,0,1.11-.25,1.41,1.41,0,0,1,.33-.43c.17-.12.19-.35.4-.47a1.24,1.24,0,0,0,.42-.51,3.25,3.25,0,0,1,.6-.68c.12-.12.39-.1.37-.36a.19.19,0,0,1,.23,0c.06.07.13.07.17,0s0-.11-.09-.13-.17-.09-.15-.18.12-.15.24-.11a.33.33,0,0,0,.31-.12c.17-.18.42-.37.48-.57s.35-.42.4-.68.11-.12.16-.17.33-.16.35-.38.09-.11.16-.12.12,0,.09-.06-.1,0-.11,0,0-.11.09-.13a1,1,0,0,0,.65-.83c0-.1.1-.18.18-.11.26.21.41,0,.57-.14a.45.45,0,0,0,.2-.49.21.21,0,0,0,0-.08c0-.08,0-.16.08-.16s.09.08.08.16,0,.19.09.21.16-.09.14-.2.08-.18.17-.22a.82.82,0,0,0,.56-.78.93.93,0,0,1,.37-.61h0c.32,0,.38-.36.58-.53s.22-.14.31-.22-.26-.21-.2-.4c.39-.06.63-.5,1.08-.41-.06-.3-.26,0-.38-.19a1.07,1.07,0,0,1,.41-.18c.17,0,.34-.07.23-.31a.11.11,0,0,1,0-.08c.39-.22.39-.74.73-1,0,0,0-.17.16-.09s.14.09.14,0,0-.15-.13-.12l-.13,0s-.09,0-.11,0a.16.16,0,0,1,0-.16.33.33,0,0,1,.24-.08c.12,0,.15-.06.09-.17s-.06-.12,0-.12.19.07.16.11.08.25,0,.35,0,.18.09.22a.18.18,0,0,0,.25-.1,2,2,0,0,0,0-.26c0-.19.15-.25.34-.2s.38.16.4-.18c0-.11.19,0,.25-.11.27-.27.63-.07.93-.2a.11.11,0,0,1,.08,0c.15.41.34.08.51,0s.27-.21.4,0a1.12,1.12,0,0,1,.48-.07c.14,0,.25.07.37.07s.34-.28.58-.09a3.92,3.92,0,0,0,.56.33c.08,0,.11.15.24,0s.21-.16.25.1c0,0,0,.07,0,.12a.62.62,0,0,0,.21-.22.33.33,0,0,1,.11.26c0,.1,0,.08.13.09.43,0,.53.18.39.56,0,.05,0,.07,0,.11a.09.09,0,0,0,.14,0c.06,0,.07-.17.2-.14a.61.61,0,0,0,0,.37,1.25,1.25,0,0,1,0,1.1c-.1.17-.16.37,0,.53-.19,0-.24.13-.31.27.15,0,.28-.11.3-.28.27.1.31.2.17.36-.32.37-.32.37,0,.77a.48.48,0,0,1,.07.2c0,.16.15.08.24.07s0-.08,0-.14,0-.09.08-.08.3-.07.46,0,0,.19-.1.29-.09.26.14.35l.2.08c-.48.14-.73.59-1.22.58,0,.23-.47.14-.34.48-.27.17-.3.5-.51.76-.15-.18,0-.28.06-.38s0-.1,0-.14-.11,0-.11,0-.15.11-.22.17c-.3.25-.34.39-.13.73.08.14.24.24,0,.37a.08.08,0,0,0-.05.07c0,.51-.4.7-.72.94-.15.12-.2.13,0,.29s.07.29-.11.38-.11.1-.12.22a1.2,1.2,0,0,1-.55.73c-.24.19-.42.46-.73.56-.16.05,0,.11,0,.18s-.26.23-.48.22-.25.18-.19.25,0,.2-.05.28A8.13,8.13,0,0,0,45,84.68c-.1.18-.11.17-.25-.08a.25.25,0,0,0-.06.28c.13.21,0,.38-.06.56s0,.17-.2.14-.23.19-.31.3-.17.27-.34.06c-.05-.06-.12-.21-.24-.09s-.09.18,0,.28a.24.24,0,0,1-.06.4c-.16.08-.32.13-.29.37,0,.08-.14.15-.24.13s-.27.07-.35.23c-.17.37-.58.59-.69,1,0,.1-.11.07-.18.07s-.25,0-.22.25-.18.21-.22.37-.08,0-.12,0-.16-.06-.17,0c0,.26-.08.41-.39.4-.14,0-.17.2-.16.32a.63.63,0,0,1-.47.64c-.23.1-.36.39-.66.34,0,.19-.16.27-.21.42a.53.53,0,0,1-.15.26c-.18,0-.06-.24-.2-.21s-.18.11-.27.13-.37.2-.55.28-.14.21-.22.3-.09-.21-.22-.17-.24.1-.24.22-.09.29-.29.24l-.08,0a.24.24,0,0,0-.22.12.08.08,0,0,0,0,.08c.11.09.17-.07.3-.07,0,.33.26.59.22.94.2,0,0,.43.36.27,0,0,0,.16-.06.26.1.1.33-.1.37.14a2.75,2.75,0,0,0,.11.41c.13,0,.24-.14.26-.11.13.24.45.2.57.42s.42.36.65,0c0,0,.05,0,.08,0s0,.1,0,.16,0,.14,0,.26c.16-.08.18-.21.23-.31s.11-.15.21-.11.06.14,0,.22,0,0,0,.07.1-.06.11-.13.15-.18.23-.07.24.09.32.21c.11-.09,0-.27.14-.34a1,1,0,0,1,.29-.08c.09,0,.12,0,.12.14a.54.54,0,0,0,0,.51A.52.52,0,0,0,41.35,94.57Zm8.56-20.81s.12,0,.12,0a.46.46,0,0,0-.11-.5.09.09,0,0,0-.11,0,.1.1,0,0,0-.05.14c.07.13.19.24.16.41s-.1.37-.06.58C50.13,74,50.13,74,49.91,73.76ZM30.56,85.63c-.13.07-.13.16-.16.24s-.12.24-.31.2-.22-.06-.27.06-.27.08-.07.24-.19,0-.19.14a.19.19,0,0,0,0,.08,9.21,9.21,0,0,1,.15,1.16,1.27,1.27,0,0,0,0,.67,2.63,2.63,0,0,1,.12.67c0,.15,0,.36.08.44a2.12,2.12,0,0,1,.44.77c0,.07,0,.18.11.17.31,0,.24.28.35.42a1.24,1.24,0,0,0,.14.18c.24.27.54.47.76.74a.68.68,0,0,0,.36.25c.19,0,.37.13.56.17a5,5,0,0,0,.56.11c.26,0,.49-.07.75,0s.41-.22.65-.07c0,0,.08,0,.1-.07a1.67,1.67,0,0,1,.75-.38A8.58,8.58,0,0,0,37,91.08c.17-.1.41-.13.51-.28.28-.38.72-.54,1-.86.16-.17.37,0,.48-.12s.15-.3.29-.45.84-.31.85-.85c0,0,.07-.07.1-.07s.17-.12.22-.22a.83.83,0,0,1,.22-.32,1.48,1.48,0,0,0,.41-.38c.08-.14.3-.21.34-.42a.14.14,0,0,1,.13-.1c.21,0,.29-.19.37-.37a2,2,0,0,1,.59-.74c.17-.13.25-.08.34.18,0-.47.37-.79.53-1.19,0-.12.13-.26.26-.28s.22-.17.24-.27a1.59,1.59,0,0,1,.3-.56c.16-.24.34-.47.49-.72s.22-.3.46-.09c0-.29,0-.6.21-.68s.25-.32.4-.46.12,0,.19,0,.2,0,.26-.13a.65.65,0,0,0,.07-.38c0-.22.16-.36.24-.53a.4.4,0,0,1,.48-.06c-.15-.35-.23-.63.16-.81.08,0,.19-.24.17-.26-.22-.24.12-.41.07-.63,0-.06.1-.11.13,0s.1.08.16,0a.15.15,0,0,0,.06-.19.19.19,0,0,1,.15-.22c0-.11-.14-.14-.14-.25s0-.2.14-.15c.31.11.15-.14.17-.23s-.11-.19,0-.21.25-.31.42-.42c.08,0,.07.19.22.17a.6.6,0,0,0-.05-.16c-.09-.15-.25-.32.12-.29,0,0,.11-.11.07-.18a.31.31,0,0,1-.05-.29A3,3,0,0,0,49,75.33a.19.19,0,0,1,.09-.18c.23-.13.23-.13.12-.38,0-.06,0-.14-.07-.2s-.05-.13.08-.19.13-.32-.07-.39-.21-.06-.1-.19,0-.1,0-.15-.31-.23-.09-.42c-.25-.12-.2-.44-.37-.6s-.15-.15-.26-.08-.28,0-.3-.22c-.45.28-.45.28-.59,0-.15,0-.11.23-.22.29-.29-.21-.3-.2-.63,0a.35.35,0,0,1-.37,0c-.15-.1-.21,0-.3.09s-.17.18-.31,0a.12.12,0,0,0-.09-.08c-.08,0-.09.05-.08.11,0,.25-.1.35-.3.45a5.62,5.62,0,0,0-.65.43c-.13.09-.21.25-.41.17-.05.14-.41.08-.26.39,0,0-.06.4-.33.16,0,0-.09,0-.1.09s0,.14-.1.12c-.39-.11-.39.2-.5.43s-.13.46-.31.46-.21.11-.29.17-.27-.08-.4,0-.15,0-.19.07,0,.16,0,.2.08,0,.11-.09a.12.12,0,0,1,.19,0c-.05.2-.05.44-.37.44,0,0-.09.07-.11.12a.47.47,0,0,1-.27.21c-.41.21-.41.21-.36.71.2,0,0-.49.36-.37-.06.12-.14.22-.19.34s-.13.29-.24.28c-.3,0-.31.12-.33.35a.28.28,0,0,1-.27.23c-.15,0-.07-.16-.19-.2a1,1,0,0,1-.36.6s0,.08,0,.12c0,.23-.12.43-.4.48-.11,0-.16.12-.19.22a1.06,1.06,0,0,1-.33.45c-.14.14-.26.29-.39.44.07.09.15,0,.2,0s0,.13-.08.18-.14.1-.18.17c-.4.51-.63,1.18-1.31,1.45-.06,0,0,.17-.18.07s-.1.06-.08.12a.55.55,0,0,0,.08.15c.15.21.07.14-.06.06s-.15,0-.13.07c.11.3-.2.38-.32.45a1.7,1.7,0,0,0-.47.53s0,.08-.07.1c-.59.46-1.13,1-1.76,1.38a1.73,1.73,0,0,0-.47.42c-.2.26-.32.57-.7.63-.09,0,0,.2-.19.19a2.44,2.44,0,0,0-.66.22,1.44,1.44,0,0,0-.5.45.82.82,0,0,1-.22-.51.58.58,0,0,1-.1.09c-.15.22-.14.21-.25,0A1.45,1.45,0,0,1,30.56,85.63Zm8.05-6.9c.41-.15.41-.15.2-.38,0,0,0-.15-.09-.17A.78.78,0,0,0,38.61,78.73Zm1.52,16.89c.12,0,.11-.08.12-.13s0-.39.33-.31c.06,0,.12-.07.06-.15s-.21-.13-.32,0A1,1,0,0,0,40.13,95.62Zm.29-19.32c-.13.07-.13.07-.09.6A1.57,1.57,0,0,0,40.42,76.3ZM28.7,89c.1.08.16.24.33.16,0,0,0-.09,0-.11S28.83,89,28.7,89ZM43.05,73.85c.12-.09.24-.12.25-.3C43.12,73.56,43.05,73.64,43.05,73.85Zm.73,20.34c.13-.1.15-.18.07-.28s-.05-.07-.1,0Zm5.83-20.27s.07,0,.09-.06.13-.08.07-.17a.08.08,0,0,0-.07,0c-.11,0-.05.11-.09.16A.09.09,0,0,0,49.61,73.92Zm-5.4,20.35a.13.13,0,0,0-.09-.13.09.09,0,0,0-.13.07.09.09,0,0,0,.08.12S44.19,94.34,44.21,94.27Zm5.29-4.69.1-.12c0-.06.16-.15,0-.15S49.45,89.43,49.5,89.58ZM43.33,73.11c0-.08,0-.1-.08-.09a.09.09,0,0,0-.08.12s0,.12.1.09S43.32,73.14,43.33,73.11ZM39.46,78.3s0-.15-.1-.14-.06.08-.06.13,0,.15.08.15S39.46,78.37,39.46,78.3ZM20,78.54s0,0-.05,0a.22.22,0,0,0-.19.06s0,.06,0,.07.13,0,.18,0Zm2.73,1.31s.07-.06.1-.1,0-.08-.06-.08a.13.13,0,0,0-.12.09S22.63,79.84,22.71,79.85Zm19.69,15a.11.11,0,0,0,.11-.1.1.1,0,0,0-.11-.1.08.08,0,0,0-.07.08C42.32,94.77,42.34,94.82,42.4,94.83ZM40.3,77.08a.07.07,0,0,0-.09-.06c-.06,0-.12.09-.1.17s0,.08.09.06A.3.3,0,0,0,40.3,77.08Zm7.41,4.23s-.05-.1-.11-.09-.08.06-.08.09,0,.09.11.09A.11.11,0,0,0,47.71,81.31ZM43.27,94.68c.06,0,.12,0,.12-.08s0-.09-.08-.07a.2.2,0,0,0-.09.07C43.17,94.67,43.24,94.66,43.27,94.68ZM11.41,72.22c.06,0,.11,0,.1-.1s-.06-.06-.09-.06-.06,0-.08.08S11.36,72.21,11.41,72.22Z"/><path class="cls-1" d="M58.58,55.88a.29.29,0,0,0,0,.36,2.91,2.91,0,0,0,.22.51c.09.15,0,.35.13.46,0,0,0,.09-.06.09-.37-.06-.76.18-1.13,0-.07,0-.16,0-.17,0s.09.06.14.06.09.11.09.17-.18.21.07.23c0,0,0,.1,0,.15s-.18.06-.28.06-.13-.05-.11-.14.06-.14,0-.13c-.37.05-.38-.24-.47-.48-.12,0-.13.09-.13.17s.1.22,0,.33a1.06,1.06,0,0,1-.39.24,2.27,2.27,0,0,0-.25.06c-.07,0-.13.08-.12.16s.1.08.17.07.2,0,.22.17a.3.3,0,0,0,.35.26c.08,0,.18.08.27.12s-.15.14-.13.27c.22,0,.21-.18.37-.28.07.07.13.19.25.22s0,.08,0,.12,0,.16.1.11.15,0,.24.07.21.22.43.14.44.17.62.49c.29,0,0,.16.07.27h.4a.7.7,0,0,1,.72.34s0,.13.09.06.09-.12.17-.07,0,.1,0,.16.09,0,.12,0,.4,0,.48.27c0,.07,0,.14.08.19s.18-.19.32-.1,0,.23.16.24a1.23,1.23,0,0,1,.93.58c.1.18.2.3.43.22a.16.16,0,0,1,.21.1c.06.16.15.25.33.18s.1,0,.09.07c-.06.27.22.2.31.3s-.2.07-.23.19.16.14.28.18a1.55,1.55,0,0,0,.12-.22c0-.06.09-.12.11-.07.08.22.25.12.39.15a.28.28,0,0,1,.26.32s-.08.08,0,.09c.43,0,.18.38.24.58,0,0,0,0,0,0l.4-.36h0c.05,0,.12-.06.14,0s0,.22,0,.33.07-.23.21-.21a.54.54,0,0,1,.23.11c.14.09.15.32.39.34s-.17.22,0,.25.2-.09.32,0a.3.3,0,0,1,.13.36c-.07.28,0,.32.29.21a1,1,0,0,1,.84.21.34.34,0,0,0,.28.16.17.17,0,0,1,.19.18c0,.24.18.11.28.14s0,.08,0,.12-.13.09-.12.11.13.14.17.11c.28-.21.41.23.66.14,0,.09.1.17.09.21-.07.31,0,.16.14.06s0-.09.08-.08.2,0,.22.16.14.08.22.07.18,0,.18.18.07.12.16.15a1.92,1.92,0,0,1,.5.29c.11.08.13.39.37.19,0,0,0,0,0,0,0,.33.34.23.49.36s.33.33.5.49a.64.64,0,0,0,.18.1.78.78,0,0,1,.52.83c.17.08.24-.12.41-.15-.05.18.35.11.18.4-.06.12.23,0,.16.16s-.15.14-.11.26a.86.86,0,0,0,.07.1c.11,0,.08,0,.11-.09.2-.38.2-.38.42,0a.45.45,0,0,0,.13.11.58.58,0,0,1,.33.75.1.1,0,0,0,0,.11c.13,0,.06-.14.09-.21s.11-.16.2,0a.79.79,0,0,0,.44.38c.24.1.26.29.12.54,0,.06,0,.11,0,.15s.1.05.14,0,.14-.13.21,0a1.13,1.13,0,0,0,.12.18c.08.12-.08.43.27.34.09.17.27.15.42.17,0,.1-.08.1-.13.1s-.12,0-.11.11.08.05.13,0c.41,0,.62.24.5.66l.14.12c0,.08,0,.23.11.16s.32,0,.26.17,0,.24.16.32.29.2.24.39a1.88,1.88,0,0,0,0,.67c0,.2,0,.35.33.34s.24.11.2.36-.19.3-.21.51-.06.3.33.45c-.22,0-.32.28-.48,0,0,0,0-.07-.1,0a.09.09,0,0,0,0,.12s.12.08.16.13.29.3,0,.44a.2.2,0,0,0-.06.27s0,.07-.11,0-.17-.05-.16.09c0,.32-.18.13-.32.18a5.9,5.9,0,0,1,.31-.9c.07-.14.08-.22,0-.27a.19.19,0,0,0-.27.13c0,.33-.25.4-.54.35,0,.15.13.22.19.32a.14.14,0,0,0,.13.07c.21,0,.23,0,.12.16s0,.37-.19.51c-.12-.31-.12-.31-.51-.44a.34.34,0,0,1-.1.45c-.11.1-.28.2-.12.39s0,.13-.08.11-.39.12-.48-.16c0,0-.09,0-.13-.07s.13-.11.14-.21.13-.14,0-.21-.17-.18-.3-.06a.84.84,0,0,1-.45.31c-.09,0-.12.11-.1.21a2.27,2.27,0,0,1,.06.25c0,.09,0,.13-.12.15a.11.11,0,0,1-.14-.12c0-.17-.1-.29-.15-.45-.22.23-.22.24-.45.11a3.93,3.93,0,0,1-.42-.29c-.06,0-.09-.19-.19-.1s-.24,0-.29.13-.31.34-.27.6c0,0,0,.08-.12.07s0-.27-.06-.39c-.15.06,0,.21-.09.3s0,.24-.15.19a.28.28,0,0,1-.21-.24c0-.17.16-.24.17-.39-.3-.07-.3-.07-.46.4-.11,0-.09-.09-.1-.15-.08-.26-.21-.17-.35-.06h0c-.17-.15.06-.38-.11-.55a.45.45,0,0,1-.11-.53c.33.13.28.52.47.77.18,0,.16-.24.28-.3,0-.13-.21-.08-.24-.19s-.12-.2.13-.2a2.36,2.36,0,0,1,.88.09c.24.1.49.21.67-.11.17.28.41.44.43.75a1.3,1.3,0,0,1,.59-.18c-.09-.19-.31,0-.37-.18a.56.56,0,0,1,0-.42h0a.45.45,0,0,0,.6,0,2,2,0,0,1,1-.21c-.05.07-.06.12-.09.14A.2.2,0,0,0,76,78a.08.08,0,0,0,.09.07c.11,0,.19-.07.19-.2s.1-.1.14-.15c.24-.33.24-.33.59,0a1,1,0,0,1,.18-.49c.09-.08.09-.2.26-.14s.1-.19.24-.16c0-.2.21-.12.34-.16,0-.1-.08-.21-.15-.26s-.25-.21-.15-.42a.24.24,0,0,0-.07-.27c-.14-.17-.12-.19.16-.22,0-.24-.23-.24-.35-.31-.46-.25-.56-.41-.45-.91a.42.42,0,0,1-.5-.19,4.65,4.65,0,0,0-1-1,1.08,1.08,0,0,1-.24-.46c0-.07,0-.18-.11-.22s0,.23-.14.21-.11-.12-.13-.21a.62.62,0,0,1,0-.3c0-.1,0-.15-.12-.19s0,.27-.12.35-.13-.12-.17-.21a.62.62,0,0,0-.42-.4,1.38,1.38,0,0,1-.68-.59.29.29,0,0,0-.18-.16c-.14,0-.17-.09,0-.19s0-.18-.06-.22-.16-.08-.18.07-.13.13-.2,0a.84.84,0,0,1-.17-.34c0-.06,0-.13-.13-.15-.41-.06-.44-.11-.32-.48h0l-.33.18c0-.27-.42-.15-.42-.44,0-.09-.09-.17-.13-.27s-.1-.16-.2,0-.12,0-.19,0a1.36,1.36,0,0,1-.54-.33,2.22,2.22,0,0,0-.58-.44c-.11-.05-.33-.12-.21-.35,0,0,0-.1-.08-.14s-.1-.1-.14,0,0,.11,0,.18c-.5-.22-.89-.6-1.38-.82-.13-.06-.14-.27-.39-.25s-.29-.16-.46-.2-.26-.23-.44-.32a2.41,2.41,0,0,1-.75-.52c-.13-.13-.11-.19.08-.27,0,0,0,0,.06-.06s0-.09-.06-.09a1,1,0,0,0-.3,0c-.27.08-.27.09-.34-.2a.18.18,0,0,0,0-.07.15.15,0,0,0-.06,0c-.08,0,0,0,0,.08s.08.1,0,.14a.07.07,0,0,1-.11,0,.5.5,0,0,0-.5-.35.16.16,0,0,1-.17-.21c0-.16-.07-.3,0-.45-.3-.08-.35.12-.37.34-.29-.17-.59-.26-.63-.61-.37.2-.38.19-.43-.16h.13c.05,0,.11,0,.12-.07s0-.07,0-.08a.12.12,0,0,0-.15,0,.13.13,0,0,0-.07.13c-.39.06-.61-.25-.81-.48a.34.34,0,0,0-.34-.16c-.17,0-.38,0-.3-.25,0,0,0-.12,0-.1-.21.14-.32-.24-.54-.09a.17.17,0,0,1-.25-.09.61.61,0,0,0-.46-.34c-.17,0-.18-.22-.35-.29s-.34-.33-.66-.32c-.13,0-.28-.26-.43-.39s0-.3.07-.45a1.58,1.58,0,0,0,0-.25c-.2,0-.2.09-.22.21-.09.41-.31.48-.63.22a.8.8,0,0,0-.34-.18.57.57,0,0,1-.36-.22.59.59,0,0,0-.4-.27c-.13,0-.26-.17-.45-.18a.26.26,0,0,1-.25-.33.71.71,0,0,0,0-.46c-.09.24-.19.39-.42.27-.06-.15.12-.29,0-.46s-.12.07-.17.13-.11.15-.27,0a.54.54,0,0,0-.44-.13c-.08,0-.19,0-.2-.09s.11-.1.2-.11a.12.12,0,0,0,.11-.13.25.25,0,0,0-.29,0c-.19.2-.36.05-.53,0a6.44,6.44,0,0,1-.7-.34c-.22-.13-.46-.2-.67-.33s-.34-.19-.27-.56a1.86,1.86,0,0,1-1.47-.39,1.87,1.87,0,0,0-.54-.23c-.19-.06-.5-.09-.51-.42,0,0,0-.06-.09-.06-.38,0-.63-.28-1-.38-.49-.15-.82-.6-1.31-.76a.09.09,0,0,1-.07-.13.12.12,0,0,1,.13-.09c.21,0,.31-.05.27-.3,0,0,.15-.13.05-.24s-.12,0-.18,0-.1.17,0,.27,0,.08,0,.12c-.14.13-.32,0-.45.11s-.23,0-.3-.1,0-.18.1-.25,0,0,0-.08-.13,0-.16,0c-.21.17-.34.11-.55-.06a5.25,5.25,0,0,0-1-.45,1.69,1.69,0,0,1-.76-.43c-.05-.07-.09,0-.14,0s-.3-.07-.44-.13-.1,0-.06-.09c.17-.22-.07-.29-.14-.42a.26.26,0,0,1,0-.07s.08,0,.05,0h.12c.08,0,.14.11.23,0s0-.06,0-.07a.19.19,0,0,0-.26-.07s-.06.06-.1.08a.47.47,0,0,1,.19-.32c.2-.21.08-.26-.13-.27,0,0,0,0,0-.07.16-.11.33,0,.5,0-.13-.16-.13-.16-.36-.19,0,0-.09,0-.09-.06a.18.18,0,0,1,.07-.1c.08-.06.16,0,.24,0s.31.09.47.11a3,3,0,0,0,.47.1.3.3,0,0,1,.28.24.21.21,0,0,0,.29.17.22.22,0,0,1,.19,0c.23.13.39.4.72.31a.29.29,0,0,1,.22.13c.07.14.12.25.3.11s.26.06.25.12c-.07.31.2.23.32.27a5.34,5.34,0,0,1,.53.16c.08,0,.16.09.13.2h0c0,.3.18.44.41.3a.51.51,0,0,1,.53,0c.26.14.58.19.66.55,0,.05.13.08.15.14.05.21.25-.12.29.08s0,.23.05.33c.26-.44.26-.44.63-.18l-.23.21s-.08.09,0,.15a.09.09,0,0,0,.15,0,.41.41,0,0,1,.07-.11c.22-.21.24-.21.48,0s.16.24.35.07.24.07.27.23.18.37.46.38c0-.11-.26-.07-.2-.22a.17.17,0,0,1,.22-.08,6,6,0,0,1,.93.33c.12.06.18.12.32.07s.26,0,.24.18,0,.12,0,.14a.13.13,0,0,0,.13-.1l.06-.19c.12.09.25-.06.37,0s.14.12,0,.2-.31.17-.35.36-.14.1-.12.29l.11-.3a.3.3,0,0,0,.46-.07c.07-.1.21-.09.23.09a2.56,2.56,0,0,1,0,.39c0,.09,0,.17.13.22a1,1,0,0,0,0-.72c-.12-.17,0-.32.2-.34a5.24,5.24,0,0,1,.56,0c.23,0,0,.22.14.3l-.08,0c-.07,0-.16-.07-.21,0s0,.07,0,.08.14,0,.21,0l.08,0a.39.39,0,0,1,.06-.11c.11-.11.23-.28.39-.17s0,.27,0,.41,0,.08,0,.15a.22.22,0,0,0,.22-.23.47.47,0,0,1,.09-.28c.05-.07.09-.18.19-.14s0,.14,0,.22,0,.16.06.18.08-.09.09-.15.06-.1.13-.07,0,.07,0,.1-.05.12,0,.12.26-.27.21-.29c-.26-.08-.11-.21-.06-.32s.05-.19.17-.12,0,.12,0,.2c.2-.18.07-.5.29-.67.16,0,0,.28.17.29ZM62.78,63c-.1,0-.17,0-.16-.12a.3.3,0,0,0-.12-.34s-.07,0-.11,0a.09.09,0,0,0,0,.12c.12.11.13.28.2.41s.2.14.21-.07c.23,0,.18-.22.24-.35s0,0-.07,0-.08.21-.14.31S62.79,63,62.78,63Zm-7.61-5.06c-.36,0-.47.22-.6.52.13,0,.16-.25.29-.1s0,.16.12.11a.2.2,0,0,0,.07-.15c0-.14-.12-.32.12-.39s.25-.31.09-.53C55.08,57.56,55.21,57.75,55.17,57.93Zm-.87-.78a.54.54,0,0,0-.16-.35c-.11-.11-.35-.09-.34-.33,0,0,0,0-.06,0s-.27,0-.41,0-.14.08-.22.21C53.66,56.47,53.91,56.87,54.3,57.15Zm-9.66-3.49c.09-.24.28-.28.41-.39s.12-.08.07-.17-.2.12-.31,0-.15,0-.11,0S44.6,53.44,44.64,53.66ZM74.28,71.38c.09-.18.15-.29.2-.41a.12.12,0,0,0-.07-.17.13.13,0,0,0-.17.09A.79.79,0,0,0,74.28,71.38ZM58.09,60.26c-.12,0-.12.09-.18.13s-.18.2-.19,0c0,0-.1,0-.1,0a.37.37,0,0,0,0,.21c0,.07.08,0,.14,0S58.07,60.48,58.09,60.26Zm13.77,8.61c-.1.13.15.15.09.28s-.14.21,0,.29C72.1,69.06,72.1,69.06,71.86,68.87ZM69.18,67.6c.08,0,.08-.09.08-.14s-.15-.18-.25-.25-.12.14-.1.18A.39.39,0,0,0,69.18,67.6ZM70.4,68a.58.58,0,0,0,0,.41c0,.06,0,.1.11.09a.11.11,0,0,0,.08-.13A.63.63,0,0,0,70.4,68ZM73,78c.06.38.09.44.18.44s.07,0,.07,0A.35.35,0,0,0,73,78Zm4-4c-.09-.09-.17-.15-.15-.27s.06-.19-.08-.18-.11.12-.08.2-.06.16,0,.25ZM59.21,61.39c.09-.2.27-.19.34-.35C59.22,61,59.22,61,59.21,61.39Zm12.5,7.17c.19-.24.17-.31-.08-.59ZM58,59.69c-.08,0-.15,0-.14.12s-.06.21.11.22.16,0,.15-.11S58.12,59.72,58,59.69ZM50.13,55c-.14.05-.13.17-.12.29s0,.11.06.07.21-.11.18-.26A.13.13,0,0,0,50.13,55Zm5.29,3.34a.18.18,0,0,0-.16-.17c-.12,0-.07.1-.08.15a.1.1,0,0,0,.11.14C55.37,58.48,55.41,58.42,55.42,58.35Zm5.81,4.11c0-.1-.08-.1-.16-.09s-.16,0-.16.15a.13.13,0,0,0,.14.13C61.18,62.66,61.21,62.57,61.23,62.46ZM54.7,57.69c.09,0,.1-.06.1-.12s0-.21-.16-.2a.13.13,0,0,0-.11.12A.21.21,0,0,0,54.7,57.69Zm-.86.61c0-.17,0-.29-.12-.34a.13.13,0,0,0-.06,0C53.58,58.17,53.72,58.2,53.84,58.3Zm2,0a1.47,1.47,0,0,0,0-.28c0-.07.21-.1,0-.18s-.16,0-.18.14A.28.28,0,0,0,55.84,58.32ZM50,56c-.07-.08-.08-.2-.2-.2s-.09,0-.1.07.13.13.17.21Zm1.3.32c0,.16.06.26.21.24a.08.08,0,0,0,.08-.09c0-.15-.18,0-.22-.14Zm5.27,1a.9.9,0,0,0-.11.22c0,.09.06.07.12.06s.13,0,.09-.1Zm-2.87.17c-.09,0-.11,0-.11.05s0,.17.06.21a.08.08,0,0,0,.1-.06C53.78,57.62,53.76,57.54,53.7,57.51ZM68.44,66s-.07-.12-.12-.14-.09.06-.1.12a.1.1,0,0,0,.1.14C68.37,66.13,68.42,66.09,68.44,66ZM45.23,53.42c0,.07-.14,0-.13.1s.06.06.1.07.09-.05.09-.11S45.31,53.39,45.23,53.42ZM56.9,59.31c-.06,0-.08.06-.08.12a.11.11,0,0,0,.1.14s0-.09.06-.14S57,59.33,56.9,59.31Zm-.59-.15,0,0a.47.47,0,0,0,.06.2s.07,0,.09,0a.14.14,0,0,0-.06-.18S56.33,59.17,56.31,59.16Zm7.75,5A1.06,1.06,0,0,0,63.9,64s-.11,0-.11.09a.15.15,0,0,0,.15.17ZM77.87,74.77a.32.32,0,0,0,0-.39Zm-5.63-6c0-.14,0-.23-.09-.28s-.06,0-.06,0S72.14,68.71,72.24,68.79ZM62.08,62.23a.14.14,0,0,0-.17-.08.05.05,0,0,0,0,.09.13.13,0,0,0,.14.07S62.11,62.29,62.08,62.23ZM54.53,58c0-.11,0-.18-.12-.16s-.06.06-.06.09,0,.14.1.15S54.53,58,54.53,58Zm-.19.56s-.16.12,0,.19Zm16.73,9.89s-.09,0-.09,0,0,.1.09.1.1,0,.1,0S71.14,68.43,71.07,68.42ZM56.81,59.8c0,.06,0,.09.07.08A.18.18,0,0,0,57,59.8a.06.06,0,0,0-.06-.09A.09.09,0,0,0,56.81,59.8Zm-7.49-5.18a.17.17,0,0,0,.21.09s0,0,0-.06S49.41,54.55,49.32,54.62ZM70,67.65l.08-.14a.07.07,0,0,0,0-.1c-.08,0-.1,0-.1.08A.8.8,0,0,0,70,67.65ZM58,57.05a.22.22,0,0,0,.13-.06s0-.06-.06-.06-.11,0-.14,0S58,57,58,57.05Zm.25,3.21c-.06,0-.09.06-.07.12s0,0,.06,0,.09-.06.07-.12S58.29,60.27,58.27,60.26Z"/><path class="cls-1" d="M24.66,16.85c.16-.11.3,0,.37-.12s0-.07,0-.07-.23-.16-.37,0-.26.14-.23-.11c0-.07,0-.15-.07-.14-.39.1-.43-.31-.65-.46s-.15-.21-.3-.29-.25-.16-.13-.34-.06-.24-.12-.21c-.33.12-.26-.34-.51-.32-.3-.54-.71-1-1-1.52,0,0,0-.06,0-.08.11-.38-.28-.43-.42-.64,0,0-.09-.09-.14-.07-.36.15-.21-.12-.21-.25a1,1,0,0,1,.07-.15c.12-.43.07-.53-.37-.68a.63.63,0,0,0,.33-.69.7.7,0,0,0-.41-.6L20.34,10c.17-.2.41-.16.63-.18s.24.15.36.22a.22.22,0,0,1,.07.36c0,.07-.12.13-.09.24.2,0,.27-.26.49-.21.05,0,.1,0,.11.06a3.4,3.4,0,0,0,.79,1.19,3.39,3.39,0,0,0,.88.93,2.13,2.13,0,0,0,.74.94c.06.06,0,.09,0,.14a.09.09,0,0,0,0,.15,2.76,2.76,0,0,1,.94.89c.21.26.44.51.65.76a2.41,2.41,0,0,1,.38.56c.1.23.38.21.42.45a.81.81,0,0,0,.38.46,1.47,1.47,0,0,1,.38.57,15.56,15.56,0,0,0,1.36,1.76,3.51,3.51,0,0,1,.78,1c.05.14.05.18-.06.2-.39,0-.63.41-1,.41-.12.22-.21.1-.31,0l-.07-.05c-.2-.14-.2-.15,0-.28.06,0,.16-.05.1-.14s-.11-.06-.17,0-.15,0-.16-.08c0-.22-.16-.3-.37-.33s-.27-.14-.2-.36.13-.18,0-.27-.19-.1-.23.06c-.09-.05-.25-.08-.28-.16-.17-.43-.6-.44-.92-.64-.11-.07-.22-.12-.2-.31a.53.53,0,0,0-.25-.38c-.3-.19-.31-.62-.66-.78C24.83,17.17,24.87,16.92,24.66,16.85Zm-.11-.94c0-.05,0-.08-.08-.07s-.13.1-.13.19a.07.07,0,0,0,.08.07C24.54,16.09,24.51,16,24.55,15.91Z"/><path class="cls-1" d="M37.29,5.17c-.22-.2-.15-.39-.2-.56s-.07-.07,0-.09c.32-.16.17-.57.41-.76.07-.06.09-.23.22-.15s0,.18,0,.27c.14.07.32,0,.45.09s0,.07,0,.08c-.23,0-.32.14-.25.4a1.5,1.5,0,0,1,0,.84s-.06.11,0,.16c.35.27.11.66.2,1,0,0,0,0-.06.06.39.37.12.88.27,1.3,0,.1,0,.21-.08.26s-.16.27-.08.42.16.2.11.32a1.6,1.6,0,0,0,.23,1.34c0,.07.06.15,0,.2a.51.51,0,0,0,0,.66c.1.17,0,.32,0,.49a1.3,1.3,0,0,1,.05.95c-.06.13.16.18.23.3s.2.3-.08.39c0,0-.15.16,0,.15s.13.07.14.13A9.9,9.9,0,0,1,39.2,15a.2.2,0,0,1,0,.11c-.22.09-.28-.27-.5-.16,0,.17.21.14.24.3a.5.5,0,0,1-.38-.07c-.1-.07-.17-.09-.26,0a.08.08,0,0,0,0,.11c.07.06.14.11.23,0a.09.09,0,0,1,.11,0,.12.12,0,0,1,.08.14s0,.09-.09.07-.32,0-.47.11a.34.34,0,0,1-.37,0,1.79,1.79,0,0,0-.32-.13c-.12-.06-.29-.08-.33-.24s-.36-.52-.24-.85a.29.29,0,0,0,0-.27c-.16-.35-.39-.72-.2-1.14.1-.22,0-.48.16-.68a.1.1,0,0,0,0-.15S36.69,12,36.7,12c.19-.33-.11-.6-.11-.9a1.25,1.25,0,0,1,.06-.66.23.23,0,0,0,0-.25c-.07-.11.15-.13.08-.19s-.17,0-.25,0-.22-.43-.14-.52a.14.14,0,0,1,.16,0c.08,0,.12.14.28.13-.05-.47-.33-.94,0-1.38-.09-.18-.27,0-.31-.09a.85.85,0,0,1,0-.42,4.14,4.14,0,0,0,.13-.92c0-.29-.09-.61.16-.86a.1.1,0,0,0,0-.15c-.11-.12,0-.21,0-.32C36.78,5.12,37,5.11,37.29,5.17Zm.8,10.29c.07-.13,0-.22,0-.31s-.11-.08-.18-.06a.1.1,0,0,0,0,.17C37.94,15.32,38,15.45,38.09,15.46Z"/><path class="cls-1" d="M51.53,99.18c-.09-.12-.07-.3-.2-.44-.12.15-.2.36-.46.3l.13.3c-.14,0-.27.11-.4,0s-.21-.16-.32-.22-.13-.17-.07-.29c.12-.28,0-.43-.28-.44a.51.51,0,0,1-.15-.06.88.88,0,0,1,.59-.26,3.28,3.28,0,0,0,1.4-.62,7.16,7.16,0,0,0,.61-.48,2.45,2.45,0,0,1,1.21-.66.42.42,0,0,0,.23-.12c.36-.4.88-.61,1.25-1,.13-.14.25,0,.39,0,.07-.29.14-.58.47-.66s.4-.42.74-.26c-.12-.38-.1-.45.17-.63,0,0,.11-.1.15-.06.21.23.22,0,.3-.11s.23-.53.56-.61c.06,0,.11-.13.16-.2s.13-.22.29-.22.25-.18.26-.23c0-.34.29-.51.5-.71a1.92,1.92,0,0,1,.67-.52c.2-.08.36-.27.59-.33,0,0,0,.08,0,.12a.15.15,0,0,0,.17.15s.06,0,.06,0-.08-.11-.13-.16l-.07-.05c-.08,0-.15-.12-.06-.2s.17,0,.18-.11c0-.39.36-.5.57-.72a1,1,0,0,0,.22-.38,5.73,5.73,0,0,0,.33-.81.09.09,0,0,1,.1-.07c.2.06.23-.11.3-.23.18.11.08.25.08.38s0,.15.12.15.43,0,.49.1a1.2,1.2,0,0,1,.25.68s0,.12-.11.1-.14-.13-.22,0a.32.32,0,0,0-.08.32c.1.21-.07.31-.15.47-.17-.08-.15-.29-.31-.36s-.27-.14-.45-.23c0,.19-.1.38.22.33.1,0,.19.06.15.2a1.6,1.6,0,0,0,0,.29c0,.14,0,.23-.18.22s-.06.06-.1.08c-.35.19-.35.19-.67-.07-.16.12.08.35-.14.49s-.11.18-.26.12-.2,0-.19.15a.55.55,0,0,1-.16.44,8.58,8.58,0,0,0-.84,1.08c-.09-.15.11-.25,0-.33a.62.62,0,0,0-.28-.09c-.13,0-.2.11-.1.21s-.09.38,0,.56a1.55,1.55,0,0,1-.46,0c-.12-.06,0-.22-.2-.3a.77.77,0,0,0-.28.49c0,.14.19.31,0,.49-.13,0-.11-.19-.28-.13.2.46,0,.73-.44.91-.14-.06,0-.23-.17-.31-.16.08-.09.31-.28.4s-.06.29-.07.48c-.34-.22-.48.09-.68.22s-.12.16-.21.22-.23.14-.25-.08-.07-.12-.14-.12-.13.06-.12.14-.14.18-.17.29-.07.08-.14.07c-.24,0-.26,0-.23.15s.11.19,0,.24-.1-.13-.23-.14a.5.5,0,0,1-.33.46A4.76,4.76,0,0,0,53,98c-.06,0-.08.14-.2.13-.5-.06-.7.4-1,.64-.06,0-.09.08-.06.13.12.21-.1.19-.17.28ZM57.7,94.4a1.83,1.83,0,0,0-.25-.78A.73.73,0,0,0,57.7,94.4Zm4.14-5.76c-.18.2-.05.36,0,.5s.1,0,.15,0,.13-.08,0-.11S62,88.76,61.84,88.64Zm.78.74s0-.1,0-.11-.17,0-.23-.08a.07.07,0,0,0-.13,0s0,.12,0,.15l.28.09A.07.07,0,0,0,62.62,89.38Zm-3.19,2.81c0,.12.12.11.2.12s.13,0,.13-.1,0-.15-.15-.11S59.46,92.1,59.43,92.19Zm2.79-2.33c.13-.09.18-.18.07-.31a.13.13,0,0,0-.12,0C62,89.67,62.17,89.76,62.22,89.86ZM52,97.72s0-.12-.08-.1a.12.12,0,0,0-.12.14s0,.12.09.12S51.91,97.78,52,97.72Zm7.84-6.21s-.08,0-.08.07,0,.12.13.11.09,0,.08-.07S59.85,91.54,59.79,91.51Z"/><path class="cls-1" d="M82.2,10.32c-.34.08-.34.08-.36.43,0,.15-.06.29-.06.43,0,.32,0,.63-.43.65,0,0,0,.06-.07.09-.29.44-.36.46-.81.18,0,0-.1-.07-.16,0a.13.13,0,0,0,0,.19c.23.16.14.33.06.53s-.15.28-.37.26-.39-.06-.47-.3c0,0,0-.15,0-.16.29-.07.08-.28.11-.42a2.29,2.29,0,0,1,.39-.87,1.62,1.62,0,0,0,.22-.41,2.49,2.49,0,0,1,.45-.79.26.26,0,0,0,.09-.14,15.59,15.59,0,0,1,1-1.81c.2-.42.48-.83.67-1.26S83,6,83.25,5.45s.51-.82.74-1.25.54-.64.63-1.07A.26.26,0,0,1,84.73,3c.45-.21.59-.65.83-1a1.8,1.8,0,0,0,.31-.58c.06-.24.31-.12.49-.16-.12.17-.28.28-.1.48s0,.17,0,.25a5.34,5.34,0,0,1-.32,1,.42.42,0,0,1-.2.27c-.27.12-.31.41-.44.63s0,.28.3.36c-.43.08-.6.3-.63.61s-.33.19-.34.38.16.34.08.52a2.58,2.58,0,0,1-.32.49.21.21,0,0,1-.28,0c-.09,0-.11.06-.15.11s0,.09.05.13a2.65,2.65,0,0,1,.21.26c-.12.19-.3.13-.48.11.06.09.1.14.14.21.19.36.12.53-.28.63a.74.74,0,0,0-.39.18c.2.24,0,.57.19.82,0,.06,0,.14-.1.17-.43.18-.75.42-.65,1-.17.15-.14.43-.36.55Zm-1.15.94,0,0A.22.22,0,0,0,81,11s-.1,0-.09,0a1,1,0,0,0,.1.18Z"/><path class="cls-1" d="M64.25,81.86c-.24-.11-.5-.19-.56-.51a.88.88,0,0,1,.07-.74s0-.16,0-.25a.36.36,0,0,1,.55-.3.17.17,0,0,1,.1.12,2.19,2.19,0,0,0,.42.88c.06,0,.19.11.23.08s.11-.15.22,0,0,.21,0,.32-.11,0-.14.07,0,.08,0,.12.07,0,.12,0a.41.41,0,0,1,.38.56c0,.13-.17.23,0,.36a.13.13,0,0,1,0,.19.3.3,0,0,0-.1.23s-.05.11,0,.16c.12-.1.2-.31.41-.11s.15-.08.23-.12a.3.3,0,0,0,.13-.25c0-.27.22-.24.34-.31s.18.12.25.21l.07.11c-.14.09-.09-.1-.17-.1s-.22-.08-.15.11a.09.09,0,0,0,0,.05c.16.21-.36.2-.14.47s-.17.27-.19.45-.07.07-.14.07-.09,0-.09,0,.06.09.08.09c.18,0,.42,0,.51-.21s.12-.11.21-.07.11,0,.11.11a.16.16,0,0,1-.13.16c-.19,0-.33.28-.57.14s-.2,0-.19.1-.15.23-.19.37-.15.1-.26.1c.06-.34,0-.47-.18-.55s-.11,0-.16,0,0,.09,0,.13a1.16,1.16,0,0,1-.12.76.44.44,0,0,0,0,.37,1.81,1.81,0,0,1-.5,1.44c-.12.16-.27,0-.4,0a.5.5,0,0,0,0-.12c0-.05,0-.13-.09-.12a.12.12,0,0,0-.07.14c0,.09.07.11.15.09s.15.2.06.32-.28-.07-.24.17-.08.21,0,.33-.09.11-.15.12,0-.18-.15-.21-.2.14-.14.3,0,.12.06.16.07.26-.07.28-.08-.16-.1-.32c-.21.21-.44.26-.48.58s-.08.27-.36.19a1.39,1.39,0,0,1-.34-.24c-.12-.07-.08-.23.09-.27a.18.18,0,0,0,.26.16c0-.13-.14-.15-.24-.18a1,1,0,0,1-.13-.3c0-.07,0-.19.11-.2s.11.06.12.14,0,.12.07.14.07-.17.12-.25h0c.08-.05.23-.08.22-.19a3.16,3.16,0,0,1,.17-.81.67.67,0,0,1,.22-.43c.11.16,0,.37.15.49a.42.42,0,0,0,.12-.56.27.27,0,0,1,0-.33,2.28,2.28,0,0,0,.57-1.59.51.51,0,0,1,0-.13.08.08,0,0,1,.1-.06s.09.06.07.09c-.12.2.1.37,0,.58a2.92,2.92,0,0,0,.24-.37c.06-.12.19-.27,0-.38a.13.13,0,0,1,0-.19c.09-.2.06-.31-.18-.32a.22.22,0,0,1-.24-.2c0-.19.14-.19.24-.26,0,.08,0,.18,0,.17a.13.13,0,0,0,.11-.18c0-.09-.11,0-.16,0-.07-.22-.47-.22-.34-.62,0,0,0,0,.08.07s.2.08.25,0-.09-.06-.12-.11-.16-.2,0-.32,0-.19-.1-.19.15-.28,0-.43a.21.21,0,0,1,0-.28s.13-.07.05-.16a.26.26,0,0,0-.23-.09.16.16,0,0,0-.11.17c0,.18-.07.4.17.52A.36.36,0,0,1,64.25,81.86Zm.52-.63a.44.44,0,0,1-.21.41c-.1.06-.11.15,0,.23s.22,0,.15-.13C64.94,81.59,64.89,81.42,64.77,81.23Zm.54,1.3c.17-.28.06-.46,0-.72A1,1,0,0,0,65.31,82.53Zm.71,1c.13-.08,0-.23.15-.27s.09,0,0-.08a.21.21,0,0,0-.11,0C65.92,83.2,65.91,83.28,66,83.57Zm-1.67,1.82s0-.09-.07-.07-.07.06-.07.09,0,.09.07.09S64.34,85.44,64.35,85.39Z"/><path class="cls-1" d="M57.49,79.54c0,.1,0,.24.17.23s.16-.09.17-.2a.27.27,0,0,1,.16-.24c0,.34.48.32.48.68a.48.48,0,0,1,.12,0c.1,0,.08.29.21.2s0-.2-.08-.3.08-.28.2-.4.1.22.24.24.06,0,.05,0a.41.41,0,0,1,.32-.51c.15,0,.27-.18.45-.14,0,.14-.19.17-.28.25s-.49.25-.27.61c0,.08,0,.26-.09.36s-.24.28,0,.43c0,0,0,.09,0,.11-.23.12-.35.35-.53.5s-.1.12-.18.09-.07-.14-.06-.22,0-.06-.07-.06a1.75,1.75,0,0,1-.29.71c-.07.09-.11.12-.18,0s-.09-.08-.14,0,0,.1,0,.15,0,.31-.17.3a.47.47,0,0,1-.29-.07c-.16-.13-.28-.1-.43.08a2.49,2.49,0,0,0-.37-1c-.05-.06,0-.14-.14-.1a.12.12,0,0,0,0,.19c.27.31.19.64.14,1s-.2.09-.29.13.06.16.12.2.19.12,0,.24a.13.13,0,0,0-.07.14.24.24,0,0,1-.24.26c-.14,0-.23.29-.42.09,0,0-.13,0-.1.09s0,.23-.09.34c-.25.3-.24.41,0,.77a2.33,2.33,0,0,1-.51,0c-.2,0-.36.06-.41.24a.34.34,0,0,0,.24.41s0,0,.06,0a1.11,1.11,0,0,1-.61.22.65.65,0,0,0,.1-.78.56.56,0,0,1,0-.34.24.24,0,0,0-.06-.25c-.17-.19-.15-.2,0-.51.08,0,.11.06.18.08s.1.18.2.08,0-.13-.06-.2a.26.26,0,0,1,.09-.42c.17-.08.13-.22.19-.38.18.25.46.44.17.75-.09.1,0,.07,0,.09s.19.13.26,0a.94.94,0,0,0,.07-.37c0-.13-.14-.21-.18-.32s.23-.2,0-.28c-.05,0,0-.07,0-.09.22-.11.16-.35.21-.53s.11-.3.42-.1a1.69,1.69,0,0,1,.26-1.12,9,9,0,0,0,.47-1.38c0-.1,0-.23.22-.21a.22.22,0,0,1,.23.19c.09.3.28,0,.42,0Zm.26,2.14c-.14,0-.06-.23-.23-.21a.16.16,0,0,0-.11.2c0,.11,0,.24.19.23S57.74,81.81,57.75,81.68Zm.48-.25c0-.14.1-.24,0-.35s-.07,0-.08,0a.26.26,0,0,0,0,.32S58.15,81.39,58.23,81.43Zm-3.11,2.51s-.1,0-.09.11,0,.14.11.16.08-.07.08-.11S55.22,84,55.12,83.94Zm3.05-3.7c-.05,0-.06,0-.08.07a.12.12,0,0,0,.06.18s.08,0,.1,0A.21.21,0,0,0,58.17,80.24Zm-2,2.4c0,.13-.13.23,0,.32a.06.06,0,0,0,.07,0C56.29,82.83,56.17,82.77,56.14,82.64ZM56,82.38h.08l-.11-.13s-.08,0-.08,0S55.91,82.36,56,82.38Z"/><path class="cls-1" d="M43.35,96.3a.58.58,0,0,0,.23.3c.1.08.19.14.27,0a.49.49,0,0,1,.42-.25c.31,0,.3-.06.33.27,0,0,0,.11,0,.12.37.3.14.61,0,1a1.63,1.63,0,0,1,.7.31,4.68,4.68,0,0,0,.94.63s.07,0,.07.05c0,.34.39.28.51.51s.2.12.26,0,.06-.18.13-.14c.26.17.49-.08.72,0s.17,0,.17-.14.09-.05.12,0a.21.21,0,0,0,.37,0,.69.69,0,0,1,.73-.31h.14c0,.13-.23.1-.15.24s.21.11.33,0,.11-.11.2-.08,0,.22,0,.33,0,.23-.18.31-.39.37-.66.41-.38.2-.61.09a.19.19,0,0,0-.26.07c-.08.1-.14.14-.21,0s-.17-.07-.24,0-.24.16-.41,0a.71.71,0,0,0-.5-.15c-.15,0-.31.11-.4-.1,0,0-.12,0-.16,0-.34.22-.54-.1-.78-.22S45.21,99,45,99s-.09-.17-.16-.24.29-.22.05-.4,0-.32,0-.53c-.16.09-.29,0-.42-.07-.11.17,0,.23.07.34s-.08.19-.14.15-.48,0-.53-.34c0,0-.11,0-.11-.11s.26.12.3-.09a.38.38,0,0,0-.08-.37c-.1-.11-.13-.4-.21-.35s-.12.31,0,.48,0,.12,0,.14-.09,0-.12-.11a.86.86,0,0,1-.13-.49c0-.12,0-.23-.14-.26s-.08-.12-.11-.18c-.14-.22,0-.23.18-.26Zm1.07.31s-.05-.1-.07-.07a1.14,1.14,0,0,0-.36.33.1.1,0,0,0,.06.14.07.07,0,0,0,.12-.06.24.24,0,0,1,.22-.27S44.43,96.65,44.42,96.61Zm.07.56a.14.14,0,0,0,.1-.12.07.07,0,0,0-.06-.09c-.06,0-.07,0-.08.07S44.43,97.14,44.49,97.17Zm3.4,2.2A.07.07,0,0,0,48,99.3a.06.06,0,0,0,0-.07.06.06,0,0,0-.1,0A.08.08,0,0,0,47.89,99.37Z"/><path class="cls-1" d="M58.2,77.36c-.15.17-.32.29-.5.06s-.16,0-.24,0a.13.13,0,0,1-.19,0s0-.1,0-.16.28-.35.15-.6c0-.07,0-.09.09-.12l.28-.2a4.45,4.45,0,0,0-.38-.48,1.28,1.28,0,0,1-.14-.69.49.49,0,0,0-.28.31c0,.07,0,.16-.1.13a.18.18,0,0,1-.15-.19s.07,0,.08-.09-.13-.38.11-.48a3.88,3.88,0,0,1,.49-.11s.07,0,.12-.09a1.13,1.13,0,0,0,.51.89c.16.1.12.14.07.26S58,76,58,76.1a.12.12,0,0,0,.13,0,.33.33,0,0,1,.36.56c-.15.09-.07.25,0,.38.21,0,.08-.25.23-.28s.06,0,.06,0,0,.2,0,.3,0,.28-.28.2a.36.36,0,0,0-.32,0c0-.05,0-.12,0-.16s.06-.23-.1-.26-.21-.08-.24.07-.06.22.09.29A.52.52,0,0,0,58.2,77.36Z"/><path class="cls-1" d="M53.24,74.84c.15.08.42-.09.46.23,0,.09.11.08.15,0a.38.38,0,0,0,0-.33.68.68,0,0,1-.05-.38c0-.16.15-.13.23-.11s.07.11,0,.17c-.2.3.18.1.14.32.11-.21.06-.36.19-.45s.11-.1.15-.06.22.16.21-.08c0,0,.08-.08.1-.06.18.27.26,0,.39-.08a1.71,1.71,0,0,1,.28.4c.17,0,0-.16.1-.21s.14-.16.26-.1,0,.15,0,.23-.11.35-.16.5-.15-.4-.26,0c0,.05,0,.1-.07.08-.19-.15-.28.2-.51.06a.67.67,0,0,0-.78.18,4.7,4.7,0,0,0-.4.47c-.12,0-.16-.1-.21-.18s-.13-.09-.18,0-.16.14-.23,0a.26.26,0,0,1,.09-.31c.06,0,.16,0,.17,0s-.14,0-.15-.09a.3.3,0,0,1,0-.13ZM55,74.5c-.06,0-.1,0-.07.11s0,.14.1.14.12-.06.11-.14A.11.11,0,0,0,55,74.5Z"/><path class="cls-1" d="M57.5,79.55c0-.16-.15-.35.07-.5,0,0,0-.09-.07-.12a2.53,2.53,0,0,1-.23-.12c-.11.09,0,.24-.1.35s0,.12-.1.12-.1-.09-.11-.16,0,0,0,0c.22-.18.06-.45.14-.64s0-.58.17-.86c.08,0,.17,0,.24.08s0,.1-.07.09-.14.17-.06.29c.16-.09.11-.19,0-.29.23.06.07.37.29.43-.17.35.14.28.29.36s.08,0,.15,0a.34.34,0,0,1,0-.45c.08-.11.25-.2,0-.27-.06,0,.07-.2.13-.16s.21,0,.33-.05c0,.13-.17.2-.08.33s0,.07,0,.09.17.13.11.19a2.47,2.47,0,0,0-.38.59c-.06.12-.24,0-.26.11s-.22.22-.21.41a.22.22,0,0,1-.27.25Z"/><path class="cls-1" d="M63.13,79c-.14.15-.24.28,0,.43,0,0,.09.07.14,0s.29,0,.41.1.17.34.43.17c-.16.15-.2.47-.49.25,0,0-.09,0-.07.08s-.24.25,0,.4c0,0,0,.08-.07.09a.08.08,0,0,1-.1,0,1.51,1.51,0,0,0-.82-.69c-.22-.08-.22-.33-.44-.55.28.09.44.09.57-.1S63,79.07,63.13,79Z"/><path class="cls-1" d="M59.62,79.6c.11,0,.11.09.14.15a.11.11,0,0,0,.13.08c.17-.17-.13-.31,0-.49s.17,0,.26,0,.12,0,.1-.15a.31.31,0,0,1,.29-.3.09.09,0,0,1,.07,0c0,.13-.1.25.15.22s.09-.32.15-.28c.31.24.24.58.14.9a.46.46,0,0,1-.1.18c-.1.09-.21-.13-.28,0s0,.19-.16.24-.44-.06-.65.07c0-.16-.17-.23-.25-.34A.19.19,0,0,1,59.62,79.6Zm.72.34c.06,0,.12,0,.12-.09s0-.12-.09-.1a.21.21,0,0,0-.13.09C60.22,79.9,60.28,79.93,60.34,79.94Z"/><path class="cls-1" d="M61.25,79.79c0-.11.08-.15.07-.19,0-.29.17-.48.26-.72,0-.06.05-.09.12-.06s0,.23.16.29.12.11,0,.22a.22.22,0,0,0,0,.28c0,.06.07.14,0,.18a.13.13,0,0,1-.2-.1s0-.2-.07,0S61.4,79.73,61.25,79.79Z"/><path class="cls-1" d="M67.55,82.13c.09,0,.17-.07.22,0s0,.14-.06.19a.78.78,0,0,1-.16.2c-.1.07-.13.25-.29.23s0-.21-.09-.27a.43.43,0,0,1-.19-.32c0-.12,0-.37.17-.4s.15,0,.13.06C67.13,82.2,67.39,82.12,67.55,82.13Z"/><path class="cls-1" d="M51.53,99.18c-.09,0-.12.11-.16.18s0,.14,0,.19.14,0,.15-.08.08-.07.12,0a.28.28,0,0,1,0,.38,1.3,1.3,0,0,0-.31.51l-.09.1c0-.17-.21-.26,0-.44s0-.16-.07-.17-.2-.12-.08-.25a.64.64,0,0,0,.18-.27c0-.16.15-.19.29-.11Z"/><path class="cls-1" d="M56.53,75.1c-.12,0-.17-.06-.14-.15s0-.2-.13-.19-.21,0-.18-.17a.35.35,0,0,1,.19-.31c.07,0,.09,0,.1.1s.07.11.14,0,0-.17.13-.1.19.11.14.24a1.37,1.37,0,0,0-.18.49S56.54,75.1,56.53,75.1Z"/><path class="cls-1" d="M50.75,75.88a.63.63,0,0,0,.3-.28c.07-.16.15-.14.25,0s.1.28-.09.3A3.53,3.53,0,0,1,50.75,75.88Z"/><path class="cls-1" d="M63.17,89c-.06-.25-.05-.42.12-.56s0-.16.14-.09.13.13.08.22A1.09,1.09,0,0,1,63.17,89Z"/><path class="cls-1" d="M51.78,100.5a.37.37,0,0,1-.05.41c-.06.06-.08.17-.19.12a.2.2,0,0,1-.09-.22C51.46,100.6,51.65,100.61,51.78,100.5Z"/><path class="cls-1" d="M37.79,78.24c-.07,0-.11,0-.1-.09a.13.13,0,0,1,.06-.1c.07-.06.19.08.24-.08s.06-.19.17-.1,0,.15,0,.22S37.92,78.24,37.79,78.24Z"/><path class="cls-1" d="M68.52,82.22c-.1,0-.12-.26-.29,0s0-.17-.15-.21,0-.12,0-.15.31,0,.36.2C68.48,82.1,68.57,82.14,68.52,82.22Z"/><path class="cls-1" d="M98.18,61.17c0,.07,0,.1-.08.13s-.06.27-.25.22-.09-.11-.06-.13,0-.22.16-.27A.22.22,0,0,1,98.18,61.17Z"/><path class="cls-1" d="M52.3,75.41c-.1-.25.21-.38.18-.62,0,0,.09,0,.15,0a.07.07,0,0,1,.06.09,1,1,0,0,1-.08.25h0l-.27.3S52.32,75.42,52.3,75.41Z"/><path class="cls-1" d="M105.62,54.52l-.37-.06c0-.05,0-.09,0-.12s.09-.21.2-.18S105.56,54.35,105.62,54.52Z"/><path class="cls-1" d="M56.05,83.92c0,.2-.29.06-.3.26s-.1.09-.16,0a.13.13,0,0,1,0-.22C55.7,83.84,55.88,83.92,56.05,83.92Z"/><path class="cls-1" d="M43.36,96.31a.1.1,0,0,0,0-.15c-.08-.12,0-.2.08-.22s.08.08.07.16.18.07.2.19a.36.36,0,0,1-.36,0Z"/><path class="cls-1" d="M109.23,50.74l-.11.13c-.06.07-.12.16-.21.1s-.06-.16,0-.24.14-.09.22-.06.09.06.14.08Z"/><path class="cls-1" d="M60.32,46.55c.06.12,0,.19-.08.26s-.12.13-.22.09-.05,0-.05,0,.09-.13.15-.17Z"/><path class="cls-1" d="M44.3,96.05s-.07,0-.08,0-.28-.08-.26-.27c0,0,0,0,0-.07C44.08,95.83,44.3,95.81,44.3,96.05Z"/><path class="cls-1" d="M43.19,95.72a.47.47,0,0,1-.11.33c-.17-.06-.06-.27-.23-.35a.31.31,0,0,1,.35,0Z"/><path class="cls-1" d="M83.53,8.34a.84.84,0,0,1,0-.53C83.65,8,83.65,8,83.53,8.34Z"/><path class="cls-1" d="M52.61,75.11s.06,0,.08,0,.22.06.21.16-.15.18-.28.17h0a1.09,1.09,0,0,1,0-.36Z"/><path class="cls-1" d="M21.24,12.92l.22.45C21.09,13.23,21.05,13.15,21.24,12.92Z"/><path class="cls-1" d="M52.3,75.41s0,0,.05,0,.18,0,.27.06h0c0,.11-.2,0-.25.13s-.06.14-.14,0S52.16,75.46,52.3,75.41Z"/><path class="cls-1" d="M77.32,88.61a.13.13,0,0,1-.11.14c-.12,0-.15,0-.16-.14a.14.14,0,0,1,.1-.17C77.27,88.42,77.29,88.51,77.32,88.61Z"/><path class="cls-1" d="M99.27,59.72a.25.25,0,0,1,0,.12c0,.11-.08.15-.18.15a.14.14,0,0,1-.09-.08c-.07-.12.07-.13.12-.18s.1,0,.16,0Z"/><path class="cls-1" d="M74.47,79c0,.07-.11.14-.2.12s-.07-.09-.07-.14,0-.13.14-.12A.13.13,0,0,1,74.47,79Z"/><path class="cls-1" d="M20.59,10.59c-.23.1-.22-.12-.34-.16s0-.08,0-.1.09,0,.11,0Z"/><path class="cls-1" d="M82.2,10.32l.09,0s0,.09,0,.12,0,.26-.19.15,0-.19.06-.26S82.17,10.34,82.2,10.32Z"/><path class="cls-1" d="M98.5,63.52a.41.41,0,0,1,.55,0c-.21.15-.38,0-.55,0Z"/><path class="cls-1" d="M65,80.63a.2.2,0,0,1,.12.19c0,.08-.06.09-.12.07a.14.14,0,0,1-.09-.2S64.92,80.61,65,80.63Z"/><path class="cls-1" d="M78.23,87.9c-.18-.09-.26-.17-.26-.31s0,0,.06,0C78.23,87.58,78.15,87.75,78.23,87.9Z"/><path class="cls-1" d="M66.72,83.46c0-.23.19-.28.16-.46C67,83.25,67,83.25,66.72,83.46Z"/><path class="cls-1" d="M53.25,74.83c-.31-.07-.32-.09-.15-.34,0,.12.09.24.14.35Z"/><path class="cls-1" d="M68,81.49a.13.13,0,0,1-.14.12c-.06,0-.11,0-.08-.11a.18.18,0,0,1,.16-.1C68,81.4,68,81.45,68,81.49Z"/><path class="cls-1" d="M44.11,98.4c0-.07.12,0,.18,0a.07.07,0,0,1,.09.06s0,.07-.08.07S44.13,98.51,44.11,98.4Z"/><path class="cls-1" d="M43.81,95.31s.08-.08.13-.08.1.07.11.13,0,.11-.09.09A.21.21,0,0,1,43.81,95.31Z"/><path class="cls-1" d="M51.74,75.55c-.08-.07,0-.15,0-.23a.25.25,0,0,1,.1,0c.09,0,.06.07,0,.11S51.83,75.53,51.74,75.55Z"/><path class="cls-1" d="M58.39,93.79a.13.13,0,0,1-.11-.15c0-.06,0-.12.1-.12s0,.08,0,.12S58.44,93.75,58.39,93.79Z"/><path class="cls-1" d="M103.59,59.06c-.09,0-.12,0-.12-.1s0-.1,0-.09.15,0,.15.11S103.61,59,103.59,59.06Z"/><path class="cls-1" d="M47.69,91.82c.17-.1.24-.19.39-.15C48,91.82,47.93,91.88,47.69,91.82Z"/><path class="cls-1" d="M51.72,76.37a.13.13,0,0,1-.12-.13c0-.1.07-.1.14-.1s.11,0,.1.1S51.76,76.34,51.72,76.37Z"/><path class="cls-1" d="M63.14,76.29l-.07,0c-.08,0-.17,0-.24,0a.05.05,0,0,1,0-.08c.1,0,.16.06.24.07Z"/><path class="cls-1" d="M79.37,85.1l.09.06c.05,0,.13.1.06.17s-.13,0-.17-.06A.14.14,0,0,1,79.37,85.1Z"/><path class="cls-1" d="M67.89,82.72c-.1,0-.19,0-.26,0s0-.06,0-.07A.17.17,0,0,1,67.89,82.72Z"/><path class="cls-1" d="M58.17,57.51c0,.08-.07.16-.16.16a.06.06,0,0,1,0-.09c0-.06.06-.13.14-.14S58.17,57.46,58.17,57.51Z"/><path class="cls-1" d="M77.41,73.45l-.14-.12.16,0c.07,0,.13,0,.13.08S77.47,73.43,77.41,73.45Z"/><path class="cls-1" d="M68.65,82.58s0,.13-.1.11-.08-.07-.06-.14,0-.12.09-.11S68.64,82.52,68.65,82.58Z"/><path class="cls-1" d="M74.68,77.72l-.08.1c-.06.06-.11.14-.21.09s0-.06,0-.08.12-.1.21-.09a.27.27,0,0,0,.09,0Z"/><path class="cls-1" d="M74.05,78.52s0,.06-.06.07,0,.14-.14.13,0,0-.06,0,.09-.13.17-.15Z"/><path class="cls-1" d="M54.78,102.27h0s-.06-.06-.07-.1a.29.29,0,0,1,0-.13s.06,0,.07,0a.27.27,0,0,1,0,.12A.6.6,0,0,1,54.78,102.27Z"/><path class="cls-1" d="M84.84,74.35s.06.05.06.09a.16.16,0,0,1-.07.09s-.07,0-.08-.06S84.77,74.37,84.84,74.35Z"/><path class="cls-1" d="M72,78.76s0,0,0,.08A.15.15,0,0,1,72,79a.06.06,0,0,1-.09,0,.12.12,0,0,1,0-.15.25.25,0,0,1,.12,0Z"/><path class="cls-1" d="M65.38,63.69h0s0,0-.08,0-.11.05-.13,0a.11.11,0,0,1,0-.07.09.09,0,0,1,.14,0S65.37,63.65,65.38,63.69Z"/><path class="cls-1" d="M43.64,95.31s0,.07-.08,0-.16,0-.13-.13a.15.15,0,0,1,.09-.07C43.58,95.19,43.65,95.23,43.64,95.31Z"/><path class="cls-1" d="M83.81,75.41a.51.51,0,0,1,.37,0A.53.53,0,0,1,83.81,75.41Z"/><path class="cls-1" d="M48.76,54.1c.05-.07.11-.13.2-.08s.11.11.06.18-.12,0-.17,0l-.09-.09Z"/><path class="cls-1" d="M52,75.81s0,.09-.06.09a.09.09,0,0,1-.09-.11.13.13,0,0,1,.07-.09C52,75.67,52,75.76,52,75.81Z"/><path class="cls-1" d="M52.31,76s.1.06.1.1-.08.06-.13.06-.08,0-.08-.1S52.24,76,52.31,76Z"/><path class="cls-1" d="M77.44,88.72s.08.08.07.14,0,.15-.06.18a.13.13,0,0,1-.07,0c-.06-.06-.08-.12,0-.18a.26.26,0,0,0,.07-.1Z"/><path class="cls-1" d="M62.75,87.68a.06.06,0,0,0,0,0c0-.09-.19-.1-.17-.23s0,0,.07,0a.18.18,0,0,1,.11.3Z"/><path class="cls-1" d="M54.94,85s-.08,0-.09-.06,0-.12.12-.15.08,0,.08.06S55.05,85,54.94,85Z"/><path class="cls-1" d="M95.6,63.26s0,0,0,.08,0,.09-.09.09a.11.11,0,0,1-.07-.09C95.47,63.29,95.51,63.27,95.6,63.26Z"/><path class="cls-1" d="M93,69c.07,0,.15,0,.13.11a.08.08,0,0,1-.12.06c-.08-.05,0-.12,0-.18Z"/><path class="cls-1" d="M50.48,45s-.11,0-.1-.05a.22.22,0,0,1,.12-.11s.07,0,.08.06S50.52,45,50.48,45Z"/><path class="cls-1" d="M67.37,82.91s0,.08-.07.08-.06,0-.06,0a.06.06,0,0,1,.06-.08S67.35,82.9,67.37,82.91Z"/><path class="cls-1" d="M89.56,69.58l-.07-.09s.05,0,.08,0,.08,0,.06.08S89.59,69.56,89.56,69.58Z"/><path class="cls-1" d="M70.38,81.88c0,.09,0,.1-.12.09s-.08,0-.07-.08a.09.09,0,0,1,.12-.08S70.39,81.84,70.38,81.88Z"/><path class="cls-1" d="M39.84,76.14a.56.56,0,0,0,0-.13c0-.07,0-.14.06-.18s.05,0,.06,0,0,.12-.05.18a.41.41,0,0,0-.07.11Z"/><path class="cls-1" d="M53.1,42.26a.51.51,0,0,1,0,.17.09.09,0,0,1-.11.09.09.09,0,0,1,0-.14l.12-.12Z"/><path class="cls-1" d="M52.85,75.72c0,.1-.05.1-.1.12s-.09,0-.09,0a.12.12,0,0,1,.09-.13S52.82,75.71,52.85,75.72Z"/><path class="cls-1" d="M106.23,53.34a.13.13,0,0,1,.12.1c0,.09-.06.07-.1.07s-.11,0-.1-.09S106.17,53.34,106.23,53.34Z"/><path class="cls-1" d="M61.37,36.21a.11.11,0,0,1,.09.08c0,.05,0,.09-.05.09a.08.08,0,0,1-.08-.08S61.33,36.22,61.37,36.21Z"/><path class="cls-1" d="M107.78,54.74l.11-.13a.08.08,0,0,1,.14,0,.05.05,0,0,1,0,0c0,.07,0,.09-.12.08h-.15Z"/><path class="cls-1" d="M71.61,95.16a1.63,1.63,0,0,1,.11.17s0,.1,0,.11-.11,0-.11-.07a1.48,1.48,0,0,1,0-.21Z"/><path class="cls-1" d="M43.82,95.58s0,0,0,0l-.16-.07s0,0,0-.06S43.77,95.53,43.82,95.58Z"/><path class="cls-1" d="M61.89,36.17c-.06,0-.1,0-.15,0s-.08,0-.09,0,0-.1.09-.08a.94.94,0,0,1,.15.06Z"/><path class="cls-1" d="M43.2,95.73a.34.34,0,0,1,.11-.07.1.1,0,0,1,.14,0s0,0,0,.05-.09,0-.15,0a.42.42,0,0,0-.12,0Z"/><path class="cls-1" d="M52,99.74s0,.09-.08.07a.12.12,0,0,1,0-.1s0-.06.09,0S52,99.7,52,99.74Z"/><path class="cls-1" d="M61.79,7.08c.06,0,.11,0,.1.11s0,.08-.08.09a.11.11,0,0,1-.12-.09C61.67,7.12,61.73,7.09,61.79,7.08Z"/><path class="cls-1" d="M54.6,101.86s0,.06-.06.08a.06.06,0,0,1-.09,0,.07.07,0,0,1,0-.09S54.58,101.8,54.6,101.86Z"/><path class="cls-1" d="M61.71,102.72s0,.06-.05.07-.07-.05-.08-.09,0-.09.06-.08S61.72,102.64,61.71,102.72Z"/><path class="cls-1" d="M61.36,102.92a.61.61,0,0,1,0-.11s0-.08.08,0a.09.09,0,0,1,0,.11A.2.2,0,0,1,61.36,102.92Z"/><path class="cls-1" d="M77.81,88.1s0,0-.07,0a.09.09,0,0,1-.09-.08s0-.07.07-.07S77.8,88,77.81,88.1Z"/></svg>