<svg width="380" height="380" viewBox="0 0 380 380" fill="none" xmlns="http://www.w3.org/2000/svg">
<path d="M379.687 13.47C379.735 13.252 379.772 13.0318 379.797 12.81C379.797 12.66 379.847 12.51 379.857 12.36C379.867 12.21 379.857 11.96 379.857 11.76C379.857 11.56 379.857 11.41 379.857 11.24C379.857 11.07 379.857 10.89 379.857 10.72C379.857 10.55 379.857 10.31 379.857 10.12C379.857 9.93 379.857 9.81 379.797 9.66C379.737 9.51 379.737 9.22 379.687 9C379.637 8.78 379.627 8.72 379.587 8.58C379.547 8.44 379.477 8.13 379.407 7.91V7.78L379.287 7.46C379.221 7.25942 379.144 7.06248 379.057 6.87C378.987 6.69 378.907 6.53 378.837 6.36L378.597 5.88C378.497 5.7 378.397 5.53 378.287 5.36C378.177 5.19 378.117 5.08 378.027 4.94C377.937 4.8 377.797 4.61 377.677 4.44L377.367 4.05C377.247 3.9 377.117 3.76 376.997 3.62L376.617 3.22L376.247 2.87C376.087 2.73 375.937 2.59 375.777 2.47L375.417 2.18C375.247 2.05 375.067 1.93001 374.887 1.81001C374.766 1.72062 374.639 1.64039 374.507 1.57L373.947 1.25L373.497 1.02C373.327 0.940004 373.147 0.849999 372.967 0.779999C372.784 0.69965 372.597 0.629542 372.407 0.57L372.057 0.440002H371.927L371.267 0.270004C371.129 0.227254 370.989 0.193846 370.847 0.170006C370.617 0.170006 370.397 0.0900052 370.177 0.0600052L369.727 0H369.107H368.607H368.057H367.487L367.007 0.0600052L366.377 0.160004L365.937 0.270004L365.277 0.440002H365.157L7.88695 114.68C5.81541 115.342 3.978 116.586 2.59373 118.264C1.20947 119.941 0.336731 121.981 0.0795661 124.141C-0.177599 126.3 0.191652 128.488 1.1433 130.444C2.09495 132.399 3.58886 134.04 5.44695 135.17L154.137 225.68L244.647 374.37C245.657 376.032 247.079 377.406 248.774 378.358C250.47 379.311 252.382 379.811 254.327 379.81C254.778 379.813 255.229 379.787 255.677 379.73C257.836 379.475 259.876 378.603 261.553 377.22C263.231 375.837 264.475 374.001 265.137 371.93L379.377 14.69V14.57C379.447 14.35 379.507 14.12 379.557 13.89C379.607 13.66 379.657 13.61 379.687 13.47ZM251.097 341.36L177.387 220.25L308.387 88.03C310.509 85.8937 311.695 83.002 311.685 79.9911C311.674 76.9802 310.468 74.0967 308.332 71.975C306.196 69.8533 303.304 68.6671 300.293 68.6774C297.282 68.6877 294.399 69.8937 292.277 72.03L161.777 203.78L38.4569 128.71L351.077 28.71L251.097 341.36Z" fill="#60605A"/>
</svg>
